<svg id="Group_7598" data-name="Group 7598" xmlns="http://www.w3.org/2000/svg" xmlns:xlink="http://www.w3.org/1999/xlink" width="200" height="97.088" viewBox="0 0 200 97.088">
  <defs>
    <clipPath id="clip-path">
      <path id="Path_3058" data-name="Path 3058" d="M120.3-90.45l-2.091-4.818-2.151,4.818Zm.359.763H115.7l-.592,1.36a2.988,2.988,0,0,0-.29,1.118.917.917,0,0,0,.48.872,3.991,3.991,0,0,0,1.374.256v.384H112v-.384a2.115,2.115,0,0,0,1.243-.621,8.624,8.624,0,0,0,1.2-2.12l5.019-11.161h.2l5.055,11.471a6.774,6.774,0,0,0,1.2,2.056,1.62,1.62,0,0,0,.984.374v.384h-6.79v-.384h.273a2.03,2.03,0,0,0,1.15-.234.537.537,0,0,0,.235-.471,1.1,1.1,0,0,0-.064-.377,7.4,7.4,0,0,0-.314-.777Zm14.857-5.664V-87.8a2.9,2.9,0,0,0,.2,1.381,1.223,1.223,0,0,0,.841.343v.377h-3.945V-87a4.894,4.894,0,0,1-1.383,1.213,3.223,3.223,0,0,1-1.554.365,2.317,2.317,0,0,1-1.464-.49,2.51,2.51,0,0,1-.841-1.175,8.577,8.577,0,0,1-.221-2.345v-3.83a2.617,2.617,0,0,0-.209-1.357,1.233,1.233,0,0,0-.841-.358v-.374h3.947v6.587a6.289,6.289,0,0,0,.1,1.341.957.957,0,0,0,.307.45.884.884,0,0,0,.5.152,1.259,1.259,0,0,0,.673-.189,4.553,4.553,0,0,0,.989-1.082v-5.168a2.83,2.83,0,0,0-.2-1.357,1.3,1.3,0,0,0-.849-.358v-.374Zm7.82-.271.157,3.288h-.364a5.09,5.09,0,0,0-1.3-2,2.158,2.158,0,0,0-1.35-.535,1.017,1.017,0,0,0-.72.289.851.851,0,0,0-.295.651.823.823,0,0,0,.2.533,9.8,9.8,0,0,0,1.851,1.459,7.542,7.542,0,0,1,2,1.741A2.762,2.762,0,0,1,144-88.592a3.377,3.377,0,0,1-.4,1.58,2.845,2.845,0,0,1-1.141,1.184,3.22,3.22,0,0,1-1.621.41,5.58,5.58,0,0,1-1.854-.429,1.452,1.452,0,0,0-.433-.114c-.219,0-.413.166-.563.519h-.342l-.166-3.472h.356a4.37,4.37,0,0,0,1.274,2.039,2.439,2.439,0,0,0,1.538.689,1.087,1.087,0,0,0,.806-.306.98.98,0,0,0,.316-.744,1.232,1.232,0,0,0-.307-.853,7.924,7.924,0,0,0-1.383-1.1,10.523,10.523,0,0,1-2.051-1.67,2.9,2.9,0,0,1-.682-1.866,2.969,2.969,0,0,1,.768-2.009,2.76,2.76,0,0,1,2.236-.912,3.255,3.255,0,0,1,1.519.384,1.057,1.057,0,0,0,.447.152.569.569,0,0,0,.307-.071,2.183,2.183,0,0,0,.366-.445Zm5.129-3.261v3.532h2.3v1.016h-2.3v5.959a5.294,5.294,0,0,0,.064,1.078.977.977,0,0,0,.283.4.64.64,0,0,0,.359.144c.449,0,.884-.341,1.279-1.026l.314.23a2.839,2.839,0,0,1-2.726,1.983,2.418,2.418,0,0,1-1.557-.507,2.235,2.235,0,0,1-.813-1.146,9.612,9.612,0,0,1-.107-1.9v-5.211H144.3v-.358a13.083,13.083,0,0,0,2.222-1.93,12.008,12.008,0,0,0,1.6-2.26Zm7.023,3.532v2.181a6.852,6.852,0,0,1,1.69-1.975,2.515,2.515,0,0,1,1.4-.5,1.2,1.2,0,0,1,.92.365,1.334,1.334,0,0,1,.347.99,1.59,1.59,0,0,1-.337,1.08,1.034,1.034,0,0,1-.808.379,1.4,1.4,0,0,1-.953-.346,4.439,4.439,0,0,0-.478-.393.447.447,0,0,0-.24-.059.841.841,0,0,0-.566.225,2.032,2.032,0,0,0-.642.995,6.955,6.955,0,0,0-.333,2.21v2.224l.01.578a2.5,2.5,0,0,0,.069.751.945.945,0,0,0,.364.412,2.385,2.385,0,0,0,.827.156v.377h-5.228v-.377a1.128,1.128,0,0,0,.851-.343,3.11,3.11,0,0,0,.228-1.554v-5.339a3.975,3.975,0,0,0-.081-1.054.841.841,0,0,0-.3-.419,1.594,1.594,0,0,0-.7-.192v-.374Zm9.677,7.466v-3.224a5.989,5.989,0,0,0-1.866,1.566,1.846,1.846,0,0,0-.4,1.12,1.2,1.2,0,0,0,.333.834.947.947,0,0,0,.732.282,1.992,1.992,0,0,0,1.2-.578m0,.758a5.09,5.09,0,0,1-3.182,1.559,1.877,1.877,0,0,1-1.373-.54,1.848,1.848,0,0,1-.547-1.36,2.633,2.633,0,0,1,.951-1.98,17.576,17.576,0,0,1,4.152-2.35v-.974a4.335,4.335,0,0,0-.126-1.374,1.05,1.05,0,0,0-.444-.5,1.358,1.358,0,0,0-.746-.211,1.831,1.831,0,0,0-1.1.3.5.5,0,0,0-.269.429.866.866,0,0,0,.29.538,1.332,1.332,0,0,1,.39.857,1.175,1.175,0,0,1-.378.865,1.429,1.429,0,0,1-.989.348,1.577,1.577,0,0,1-1.1-.386,1.206,1.206,0,0,1-.437-.924,2.133,2.133,0,0,1,.587-1.409,3.682,3.682,0,0,1,1.647-1.04,6.55,6.55,0,0,1,2.2-.362,3.6,3.6,0,0,1,2.174.585,2.735,2.735,0,0,1,1.048,1.26,8.4,8.4,0,0,1,.15,2v3.742a3.942,3.942,0,0,0,.048.831.557.557,0,0,0,.152.251.394.394,0,0,0,.238.081.74.74,0,0,0,.554-.374l.311.242a3.861,3.861,0,0,1-1.081,1.113,2.237,2.237,0,0,1-1.25.343,1.965,1.965,0,0,1-1.293-.384A1.748,1.748,0,0,1,165.169-87.127ZM173.576-99.7v11.99a2.3,2.3,0,0,0,.245,1.31,1.333,1.333,0,0,0,.936.32v.377H169.52v-.377a1.253,1.253,0,0,0,.955-.372,2.206,2.206,0,0,0,.207-1.258v-10a2.277,2.277,0,0,0-.233-1.289,1.3,1.3,0,0,0-.929-.329V-99.7Zm5.887,4.344v7.646a2.293,2.293,0,0,0,.24,1.307,1.33,1.33,0,0,0,.934.322v.377h-5.228v-.377a1.236,1.236,0,0,0,.946-.372,2.257,2.257,0,0,0,.209-1.258v-5.64a2.23,2.23,0,0,0-.242-1.3,1.3,1.3,0,0,0-.913-.332v-.374Zm-1.447-4.68a1.537,1.537,0,0,1,1.141.483,1.531,1.531,0,0,1,.468,1.116,1.513,1.513,0,0,1-.482,1.132,1.559,1.559,0,0,1-1.127.46,1.543,1.543,0,0,1-1.126-.46,1.521,1.521,0,0,1-.473-1.132,1.5,1.5,0,0,1,.473-1.116,1.5,1.5,0,0,1,1.126-.483Zm8.265,12.147v-3.224a6.008,6.008,0,0,0-1.859,1.566,1.866,1.866,0,0,0-.411,1.12,1.186,1.186,0,0,0,.347.834.924.924,0,0,0,.72.282,1.985,1.985,0,0,0,1.2-.578m0,.758a5.092,5.092,0,0,1-3.173,1.559,1.89,1.89,0,0,1-1.381-.54,1.848,1.848,0,0,1-.547-1.36,2.625,2.625,0,0,1,.951-1.98,17.65,17.65,0,0,1,4.15-2.35v-.974a4.921,4.921,0,0,0-.114-1.374,1.119,1.119,0,0,0-.456-.5,1.354,1.354,0,0,0-.741-.211,1.854,1.854,0,0,0-1.11.3.514.514,0,0,0-.264.429.918.918,0,0,0,.285.538,1.29,1.29,0,0,1,.392.857,1.143,1.143,0,0,1-.38.865,1.4,1.4,0,0,1-.981.348,1.569,1.569,0,0,1-1.1-.386,1.2,1.2,0,0,1-.442-.924,2.127,2.127,0,0,1,.592-1.409,3.666,3.666,0,0,1,1.642-1.04,6.582,6.582,0,0,1,2.2-.362,3.552,3.552,0,0,1,2.165.585,2.559,2.559,0,0,1,1.043,1.26,7.829,7.829,0,0,1,.154,2v3.742a3.815,3.815,0,0,0,.052.831.521.521,0,0,0,.155.251.38.38,0,0,0,.233.081.722.722,0,0,0,.551-.374l.309.242a3.846,3.846,0,0,1-1.074,1.113,2.256,2.256,0,0,1-1.252.343,1.97,1.97,0,0,1-1.293-.384A1.768,1.768,0,0,1,186.281-87.127Zm8.372-8.224V-94.1a5.489,5.489,0,0,1,1.424-1.165,3.011,3.011,0,0,1,1.476-.374,2.342,2.342,0,0,1,1.559.526,2.5,2.5,0,0,1,.832,1.3,10.058,10.058,0,0,1,.166,2.253v3.759a2.993,2.993,0,0,0,.19,1.39,1.219,1.219,0,0,0,.851.343v.377h-4.9v-.377a1.031,1.031,0,0,0,.789-.452,2.774,2.774,0,0,0,.171-1.281v-4.3a6.815,6.815,0,0,0-.1-1.492.859.859,0,0,0-.319-.476.774.774,0,0,0-.487-.171c-.594,0-1.148.424-1.654,1.265v5.171a2.976,2.976,0,0,0,.195,1.371,1.04,1.04,0,0,0,.753.362v.377h-4.891v-.377a1.215,1.215,0,0,0,.863-.393,2.81,2.81,0,0,0,.183-1.341v-5.452a2.625,2.625,0,0,0-.214-1.357,1.211,1.211,0,0,0-.832-.358v-.374Zm25.57-4.665v4.934h-.387a6.223,6.223,0,0,0-2.084-3.074,4.873,4.873,0,0,0-3.033-1.059,3.884,3.884,0,0,0-2.612.893,4.674,4.674,0,0,0-1.481,2.454,12.006,12.006,0,0,0-.437,3.243,12.232,12.232,0,0,0,.468,3.527,4.071,4.071,0,0,0,1.535,2.229,4.478,4.478,0,0,0,2.526.711,4.965,4.965,0,0,0,1.043-.1,7.62,7.62,0,0,0,1.093-.317v-2.909a3.1,3.1,0,0,0-.112-1.068,1.029,1.029,0,0,0-.478-.443,1.761,1.761,0,0,0-.86-.192h-.361v-.384h6.826v.384a3.132,3.132,0,0,0-1.091.211,1.069,1.069,0,0,0-.466.535,2.964,2.964,0,0,0-.09.957v2.909a14.134,14.134,0,0,1-2.809.9,14.389,14.389,0,0,1-3.009.3,8.894,8.894,0,0,1-3.33-.533,8.5,8.5,0,0,1-2.322-1.423,6.771,6.771,0,0,1-1.573-1.987,6.885,6.885,0,0,1-.725-3.193,7.2,7.2,0,0,1,2.222-5.336,7.684,7.684,0,0,1,5.595-2.179,10.084,10.084,0,0,1,1.892.17,8.483,8.483,0,0,1,1.466.471,6.545,6.545,0,0,0,1.217.384.823.823,0,0,0,.535-.211,1.877,1.877,0,0,0,.454-.8Zm6.758,5.1a1.22,1.22,0,0,0-.908.405,2.855,2.855,0,0,0-.5,1.57c-.071.779-.109,1.859-.109,3.252a13.994,13.994,0,0,0,.145,2.061,1.975,1.975,0,0,0,.482,1.116,1.138,1.138,0,0,0,.855.381,1.185,1.185,0,0,0,.775-.253,1.662,1.662,0,0,0,.532-.988,22.646,22.646,0,0,0,.214-3.958,9.669,9.669,0,0,0-.2-2.4,1.913,1.913,0,0,0-.575-.964,1.122,1.122,0,0,0-.713-.22m-.036-.727A4.554,4.554,0,0,1,229.3-95a4.13,4.13,0,0,1,1.633,1.852,6.061,6.061,0,0,1,.578,2.622,5.529,5.529,0,0,1-1.046,3.437,4.137,4.137,0,0,1-3.491,1.667,4.042,4.042,0,0,1-3.375-1.525,5.693,5.693,0,0,1-1.172-3.541,5.67,5.67,0,0,1,1.2-3.61A3.944,3.944,0,0,1,226.947-95.641Zm9.133,10.22-3.27-7.473a7.91,7.91,0,0,0-.913-1.717,1.259,1.259,0,0,0-.706-.365v-.374h5.141v.374a.921.921,0,0,0-.661.182.681.681,0,0,0-.245.533,4.486,4.486,0,0,0,.454,1.433l1.592,3.626,1.274-3.131a5.8,5.8,0,0,0,.549-1.9.659.659,0,0,0-.228-.509,1.316,1.316,0,0,0-.83-.232v-.374h3.168v.374a1.353,1.353,0,0,0-.749.348,6.551,6.551,0,0,0-.865,1.639l-3.225,7.568Zm10.4-6.148a9.343,9.343,0,0,0-.181-2.279,1.817,1.817,0,0,0-.568-.938.827.827,0,0,0-.573-.189,1.039,1.039,0,0,0-.879.526,4.518,4.518,0,0,0-.618,2.518v.362Zm2.555.689h-5.312a4.925,4.925,0,0,0,1.022,3.037,2.151,2.151,0,0,0,1.716.86,2.015,2.015,0,0,0,1.127-.336,4.579,4.579,0,0,0,1.1-1.248l.352.223a5.984,5.984,0,0,1-1.744,2.269,3.725,3.725,0,0,1-2.208.656,3.688,3.688,0,0,1-3.258-1.644,5.824,5.824,0,0,1-.9-3.309,5.487,5.487,0,0,1,1.312-3.839,4.046,4.046,0,0,1,3.073-1.431,3.308,3.308,0,0,1,2.548,1.208A5.5,5.5,0,0,1,249.033-90.88Zm4.592-4.471v2.181a6.924,6.924,0,0,1,1.682-1.975,2.521,2.521,0,0,1,1.4-.5,1.231,1.231,0,0,1,.929.365,1.355,1.355,0,0,1,.347.99,1.57,1.57,0,0,1-.347,1.08,1.013,1.013,0,0,1-.806.379,1.361,1.361,0,0,1-.944-.346,4.942,4.942,0,0,0-.485-.393.454.454,0,0,0-.238-.059.866.866,0,0,0-.573.225,2.157,2.157,0,0,0-.644.995,7.241,7.241,0,0,0-.321,2.21v2.224l0,.578a2.65,2.65,0,0,0,.071.751.872.872,0,0,0,.368.412,2.353,2.353,0,0,0,.822.156v.377h-5.221v-.377a1.1,1.1,0,0,0,.839-.343,3.011,3.011,0,0,0,.24-1.554v-5.339a3.723,3.723,0,0,0-.09-1.054.8.8,0,0,0-.3-.419,1.533,1.533,0,0,0-.689-.192v-.374Zm8.92,0V-94.1a5.816,5.816,0,0,1,1.421-1.165,3.055,3.055,0,0,1,1.481-.374,2.323,2.323,0,0,1,1.562.526,2.53,2.53,0,0,1,.832,1.3A10.2,10.2,0,0,1,268-91.569v3.759a2.846,2.846,0,0,0,.2,1.39,1.184,1.184,0,0,0,.851.343v.377h-4.9v-.377a1.029,1.029,0,0,0,.782-.452,2.855,2.855,0,0,0,.169-1.281v-4.3a8.14,8.14,0,0,0-.081-1.492.954.954,0,0,0-.33-.476.758.758,0,0,0-.492-.171c-.587,0-1.141.424-1.654,1.265v5.171a3.009,3.009,0,0,0,.195,1.371,1.08,1.08,0,0,0,.756.362v.377H258.6v-.377a1.205,1.205,0,0,0,.872-.393,2.93,2.93,0,0,0,.166-1.341v-5.452a2.8,2.8,0,0,0-.2-1.357,1.256,1.256,0,0,0-.841-.358v-.374Zm11.218,0v1.272a5.7,5.7,0,0,1,1.476-1.213,3.255,3.255,0,0,1,1.483-.351,2.666,2.666,0,0,1,1.566.438,2.611,2.611,0,0,1,.972,1.312,6.277,6.277,0,0,1,1.59-1.338,3.381,3.381,0,0,1,1.588-.412,2.472,2.472,0,0,1,1.6.467,2.282,2.282,0,0,1,.829,1.163,7.849,7.849,0,0,1,.235,2.248v3.956a2.789,2.789,0,0,0,.2,1.388,1.247,1.247,0,0,0,.844.346v.377h-5v-.377a1.117,1.117,0,0,0,.865-.452,2.669,2.669,0,0,0,.192-1.281v-4.15A7.607,7.607,0,0,0,282.1-93.6a.964.964,0,0,0-.323-.519.827.827,0,0,0-.528-.175,1.586,1.586,0,0,0-.9.332,4.25,4.25,0,0,0-.918.971v5.18a2.98,2.98,0,0,0,.174,1.312,1.089,1.089,0,0,0,.908.422v.377h-5v-.377a1.051,1.051,0,0,0,.627-.2.829.829,0,0,0,.311-.426,4.115,4.115,0,0,0,.083-1.106v-4.15a7.778,7.778,0,0,0-.1-1.639.975.975,0,0,0-.356-.519.843.843,0,0,0-.518-.182,1.336,1.336,0,0,0-.758.22,4.093,4.093,0,0,0-1.039,1.09v5.18a3.034,3.034,0,0,0,.2,1.352,1.092,1.092,0,0,0,.855.381v.377h-4.991v-.377a1.2,1.2,0,0,0,.865-.393,2.817,2.817,0,0,0,.181-1.341v-5.452a2.59,2.59,0,0,0-.216-1.357,1.193,1.193,0,0,0-.829-.358v-.374Zm18.45,3.782a8.734,8.734,0,0,0-.183-2.279,1.787,1.787,0,0,0-.554-.938.853.853,0,0,0-.582-.189,1.021,1.021,0,0,0-.879.526,4.518,4.518,0,0,0-.616,2.518v.362Zm2.56.689h-5.321a5,5,0,0,0,1.029,3.037,2.146,2.146,0,0,0,1.711.86,1.994,1.994,0,0,0,1.134-.336,4.618,4.618,0,0,0,1.091-1.248l.357.223a5.917,5.917,0,0,1-1.749,2.269,3.719,3.719,0,0,1-2.208.656,3.689,3.689,0,0,1-3.256-1.644,5.824,5.824,0,0,1-.9-3.309,5.5,5.5,0,0,1,1.312-3.839,4.044,4.044,0,0,1,3.07-1.431,3.3,3.3,0,0,1,2.55,1.208A5.482,5.482,0,0,1,294.773-90.88Zm4.316-4.471V-94.1a5.46,5.46,0,0,1,1.428-1.165,2.989,2.989,0,0,1,1.466-.374,2.352,2.352,0,0,1,1.566.526,2.494,2.494,0,0,1,.829,1.3,10.207,10.207,0,0,1,.166,2.253v3.759a2.971,2.971,0,0,0,.195,1.39,1.2,1.2,0,0,0,.839.343v.377h-4.886v-.377a1.025,1.025,0,0,0,.784-.452,2.887,2.887,0,0,0,.169-1.281v-4.3a6.716,6.716,0,0,0-.1-1.492.875.875,0,0,0-.321-.476.75.75,0,0,0-.487-.171c-.6,0-1.146.424-1.652,1.265v5.171a2.839,2.839,0,0,0,.2,1.371,1.027,1.027,0,0,0,.763.362v.377h-4.91v-.377a1.22,1.22,0,0,0,.872-.393,2.913,2.913,0,0,0,.176-1.341v-5.452a2.684,2.684,0,0,0-.2-1.357,1.263,1.263,0,0,0-.844-.358v-.374ZM309.7-98.883v3.532H312v1.016h-2.3v5.959a5.05,5.05,0,0,0,.074,1.078.873.873,0,0,0,.281.4.63.63,0,0,0,.371.144c.442,0,.875-.341,1.267-1.026l.309.23a2.821,2.821,0,0,1-2.714,1.983,2.464,2.464,0,0,1-1.566-.507,2.23,2.23,0,0,1-.81-1.146,9.3,9.3,0,0,1-.1-1.9v-5.211h-1.262v-.358a13.25,13.25,0,0,0,2.22-1.93,11.785,11.785,0,0,0,1.6-2.26Z" transform="translate(-112 100.032)" fill="#fff" clip-rule="evenodd"/>
    </clipPath>
    <clipPath id="clip-path-2">
      <path id="Path_3057" data-name="Path 3057" d="M112-33.782H639.4V-138H112Z" transform="translate(-112 138)" fill="#fff"/>
    </clipPath>
    <clipPath id="clip-path-3">
      <path id="Path_3061" data-name="Path 3061" d="M186.734-82.988c-.131.386-.385.7-.347,1.12l-.131.069c.093-.493-.383-.775-.259-1.284-.25-.381-.25-.865-.475-1.274-.292-.514.249-.734.475-1.085.447.185.606.6.929.988.192.54-.221.957-.193,1.466m50.662-11.8A2.547,2.547,0,0,0,235-96.094a2.177,2.177,0,0,0-1.785,1.307,1.627,1.627,0,0,0,.606,1.762.486.486,0,0,0,.634-.166c.162-.41-.285-.41-.347-.732a1.056,1.056,0,0,1,.347-1.123c.328-.317.858-.154,1.241-.154a2.162,2.162,0,0,1,.958.919,2.6,2.6,0,0,1,0,1.7,2.836,2.836,0,0,1-1.97,1.606c-2.65.376-31.668.251-31.668.251-3.422.317-7.3-.647-10.231,1.151a5.071,5.071,0,0,0-2.36,3.418,23.133,23.133,0,0,0-2.491,2.527l-.093-.092c.159-.772.513-1.442.672-2.205.48-.64.48-1.5.834-2.21,1.207-1.952,2.346-3.937,4.233-5.31.789-1.057,2.2-.855,3.408-.855a8.5,8.5,0,0,0,4.432.63.281.281,0,0,0,.1-.223c-.452-.408-1.184-.58-1.695-.985-1.271-.614-2.481.192-3.826.092-.055-.064-.121-.092-.088-.19a18.866,18.866,0,0,1,3.947-2.115,26.6,26.6,0,0,1,3.477-1.374c.478,0,.924-.414,1.364-.13l1.69-.445c.069.038.133.125.259.095,1.426-.474,3.251-.036,4.867-.057l.226.182,1.528.384c.57.069.827.734,1.44.774.321-.45-.352-.637-.513-.933a3.512,3.512,0,0,1,2.139.325l-.316.346c-.2.36.093.609.373.741.221.064.39-.1.549-.163.409-.287-.036-.578.093-.836a31.009,31.009,0,0,1,6.787,1.923,5.327,5.327,0,0,0,1.851.609,8.448,8.448,0,0,0-2.424-1.277c-.549-.322-1.314-.358-1.718-.8.092-.159.311-.1.4-.223a4.735,4.735,0,0,0,2.776-1.791c.059-.2.418-.13.383-.384-.285-.325-.765.092-1.143.059-1.345.251-1.908,1.826-3.247,2.115-1.633-.384-3.287-.772-4.908-1.184a10.185,10.185,0,0,1-2.391-.512l-1.787-.168H208.37c-.036-.057-.131-.09-.1-.185,1.146-.291,2.137-.962,3.282-1.253l8.542-3.894a20.07,20.07,0,0,0,2.419-2.627.6.6,0,0,0-.349-.609.522.522,0,0,0-.634.133c-.388.282,0,.639,0,.985a5.288,5.288,0,0,1-1.474,1.248c-.124-.028-8.784,3.939-8.784,3.939a22.821,22.821,0,0,1-3.893,1.44l-1.849.284a1.2,1.2,0,0,1-.8.736,7.3,7.3,0,0,1-1.462.412c-4.14,1.594-8.442,3.3-11.721,6.559a3.537,3.537,0,0,0,.314-1.338,2.648,2.648,0,0,0-.347-1.409c-.078-.178-.311-.694-.242-.879l-.456.3a4.4,4.4,0,0,0-.257,2.712c.09.583.573,1.248.128,1.762a29.094,29.094,0,0,0-3.415,6.208c-.383-.073-.566-.417-.739-.77a10.465,10.465,0,0,0,2.27-4.669c.226-.154.069-.578.281-.77-.055-.514.3-1.019.038-1.433.207-.706-.934-1.345-.207-1.8l-.6.282c-1.362,1.8.718,4.479-.848,6.21v.128a5.523,5.523,0,0,1-1.271,1.537c-.765-.324-1.05-1.184-1.5-1.824a2.837,2.837,0,0,1-.283-2.982c.283-.917-.2-1.72-.29-2.551l-.323-.192a3.672,3.672,0,0,0-.44,3.742c.314.571.349,1.376.822,1.85a10.506,10.506,0,0,0,1.374,2.366c.128.32-.188.4-.354.542-.347-.223-.288-.725-.6-.952a23.045,23.045,0,0,0-4.081-5.853c-.059-.291-.349-.547-.195-.867a2.327,2.327,0,0,0,.418-2.428c-.062-.161-.259-.355-.223-.517l-.473-.379c.057,1.116-.673,2.106-.359,3.292v.059a60.927,60.927,0,0,0-10.592-6.383l-.307.812a21.56,21.56,0,0,1,3.415,1.736,22.547,22.547,0,0,1,3.187,1.7c4.337,2.4,7.208,6.36,9.143,10.775.031.35.354.736.128,1.087a18.44,18.44,0,0,0-2.417-2.43,4.645,4.645,0,0,0-2.429-3.546c-.471-.706-1.493-.772-2.286-.988l-11.6-.071c-9.433-.133-18.029.287-27.4.125-1.3-.125-2.9-.571-3.28-1.952a2.146,2.146,0,0,1,0-1.753,1.944,1.944,0,0,1,1.626-.864,1.663,1.663,0,0,1,1.079.9c0,.414-.35.8-.5,1.149.026.123.154.384.38.291a1.538,1.538,0,0,0,.832-1.026c.024-.223.117-.54-.1-.7a2.1,2.1,0,0,0-1.5-1.31,2.659,2.659,0,0,0-2.172.736,2.653,2.653,0,0,0-.509,2.688,4.305,4.305,0,0,0,3.446,2.556l31.007.126c3.016.159,6.429-.355,9.487.253A3.677,3.677,0,0,1,180.9-86.92c-.026.062-.129.031-.226.031a13.87,13.87,0,0,0-9.05-1.852,10.713,10.713,0,0,0-3.563.739,1.84,1.84,0,0,1-1.573-.519c-1.141-1.023-3.147-.957-4.611-.571,0,.1-.038.185.024.228,1.564-.13,2.493,1.208,3.9,1.371.314.064.568-.282.856-.036a28.639,28.639,0,0,1-4.439,1.987c-.468-.095-.72-.55-1.1-.8-.6-.677-1.725-.386-2.548-.457-.3.071-.544-.125-.734,0a2.7,2.7,0,0,0,1.364,1.059c.806.35,1.728-.024,2.457.45a3.531,3.531,0,0,1-.668.443c-1.5.576-2.738,1.921-4.4,1.819a5.668,5.668,0,0,1-4.715-1.528,3.208,3.208,0,0,0-3.218-1.855c-.1.069-.231.069-.193.228.7.419,1.243,1.239,1.946,1.724.447.54,1.3,0,1.711.614a6.015,6.015,0,0,0,2.077.891,9.769,9.769,0,0,0,1.652.441l-.216.13a27.4,27.4,0,0,1-9.5.926c-.951-.035-1.877-.317-2.833-.289a1.894,1.894,0,0,0,.765.455,2.053,2.053,0,0,1-.863.249,5.523,5.523,0,0,0-1.2.322,3.169,3.169,0,0,0-1.378.32,6.428,6.428,0,0,1-1.816,1.466c0,.135-.036.329.133.329.6-.263,1.364-.071,1.97-.329,1.048-.095,1.656-1.239,2.486-1.729.889-.7,2.16-.535,3.251-.379.639.166-.064.41.124.834.259.225.475.474.834.384a.52.52,0,0,1,.219-.159.729.729,0,0,0,.033-.8c.444-.3,1.05.021,1.528-.166,1.215-.033,2.422-.289,3.6-.317.2-.028.418-.23.611-.028-.088.249-.414.282-.29.628.064.291.385.424.639.49.314-.133.606-.358.482-.772-.067-.228-.321-.254-.482-.346.67-.329,1.438-.424,2.106-.744a6.857,6.857,0,0,0,1.338-.438c.411-.04.763-.422,1.141-.263a6.387,6.387,0,0,1-.665,1.537c-.5,1.7-.889,3.934,0,5.564.1.035.128-.026.192-.064a7.6,7.6,0,0,1,.285-5.246c.451-2.712,3.249-3.513,5.264-4.536l.088.118c-.532,1.412-1.329,2.757-1.21,4.451.066.28-.119.578,0,.765a3.393,3.393,0,0,0,1.184-1.473c.221-1.431-.609-3.226.86-4.282,2.61-1.021,5.065-2.369,8.088-2.4.1.1.321-.062.354.126-.639.711-1.561,1.376-1.847,2.245-1.024,1.407-.984,3.8-.549,5.528.292.992-.575,1.532-.982,2.3-.193.275-.252.737-.435,1.052l.62.066a3.339,3.339,0,0,0,1.088-2.108.88.88,0,0,0,.606.644c.221-.355-.188-.614-.226-.964.518-.287.732.35,1.15.474a7.612,7.612,0,0,0,1.939.45l.223-.225c-.7-1.085-2.1-1.274-3.313-1.346a6.454,6.454,0,0,1-.578-3.638,5.849,5.849,0,0,1,.644-1.983,4.937,4.937,0,0,1,.889-1.217,4.524,4.524,0,0,1,2.013-1.09h.1a.206.206,0,0,0,.026.1c-.853.668-.953,1.589-1.466,2.432a2.654,2.654,0,0,0-.28,2.774c.185.417.09,1.052.542,1.343a7.093,7.093,0,0,0,.663-1.952c-.093-1.052-.732-2.044-.126-3.06a2.613,2.613,0,0,1,1.721-1.412c1.756-.166,3.284.734,4.808,1.412.321.223.865.412.924.86a2.68,2.68,0,0,1-1.179,2.143,2.725,2.725,0,0,1-2.9-.038,2.191,2.191,0,0,1-.511-1.949,1.347,1.347,0,0,1,1.409-.514c.316.163.6.476,1.015.294a.413.413,0,0,0,.131-.514c-.347-.194-.48-.668-.96-.739a2.067,2.067,0,0,0-1.754.358,2.269,2.269,0,0,0-.735,2.241,2.752,2.752,0,0,0,1.982,2.039,3.7,3.7,0,0,0,3.919-1.34,4.3,4.3,0,0,0,.7-1.374,8.3,8.3,0,0,1,3.28,4.211,6.786,6.786,0,0,1,.031,1.606l1.117.095a1.042,1.042,0,0,1,.1-.772,9.648,9.648,0,0,1,3.275-5.235c.549-.32.409.414.549.637a4.24,4.24,0,0,0,2.766,2.423,3.509,3.509,0,0,0,3.446-1.118c.409-.763.92-1.881.221-2.679a2.2,2.2,0,0,0-1.763-.836,2.172,2.172,0,0,0-1.742,1.18c0,.268-.036.554.183.677.131,0,.388.033.492-.161.059-.478.473-.7.856-.952a1,1,0,0,1,1.017.182,1.728,1.728,0,0,1,.451,1.255,1.926,1.926,0,0,1-1.06,1.494,3.24,3.24,0,0,1-3.059-.282,7.04,7.04,0,0,1-.887-1.407c-.064-.514-.259-.959,0-1.468a10.677,10.677,0,0,1,4.554-1.6,3.225,3.225,0,0,1,1.692,1.056c1.462,1.5-.319,3.643.694,5.306.388-.066.388-.571.547-.9.48-1.146-.126-2.395-.414-3.515a6.43,6.43,0,0,0-1.212-1.881.754.754,0,0,1,.385-.069,7.5,7.5,0,0,1,1.935,1.66,8.531,8.531,0,0,1,1.245,5.244c-.249.954-1.271,1.409-2.065,1.758a2.914,2.914,0,0,0-.86,1.023c.378.228.915,0,1.3-.159.606-.227.953-.99,1.371-1.338.059.028.031.125.059.185.036.355-.152.836.164.926a12.483,12.483,0,0,0,.288-1.632,3.131,3.131,0,0,1,.6,1.6c.29.576.775,1.343,1.535,1.435.185-.284-.028-.576-.1-.829-.1-.8-.768-1.215-1.21-1.788-1.115-1.542-.6-3.932-1.466-5.659a6.693,6.693,0,0,0-1.72-2.362l.128-.133a18.811,18.811,0,0,1,4.3.765c1.754.865,4.3.67,5.131,2.949a8.257,8.257,0,0,0,1.821,3.444l.093-.057a1.293,1.293,0,0,0,0-1.187c-.193-1.6-1.6-1.978-2.331-3.321l.093-.135a22.7,22.7,0,0,1,2.334.734,6.854,6.854,0,0,1,4.649,5.786,12.578,12.578,0,0,1-1.174,5.474c-.1.256-.546.545-.254.763.345-.251.406-.675.6-.962a8.858,8.858,0,0,0,1.055-6.426c-.036-.417-.516-.727-.3-1.149a.981.981,0,0,0,.551.289c.192-.133.482-.133.6-.358.04-.185.164-.414,0-.571-.185-.284-.6-.284-.913-.223a1.508,1.508,0,0,0-.385.7,6.691,6.691,0,0,0-1.153-1.694l.069-.088c1.436.481,2.738,1.179,4.207,1.559a2.046,2.046,0,0,0,1.112.353,30.979,30.979,0,0,0,3.914.988c.965-.092,1.761.36,2.712.135v-.064l-.024.026c-.354-.443-1.115-.026-1.533-.348a23.875,23.875,0,0,1-6.277-1.566c.024-.095.154-.061.257-.061a.838.838,0,0,0,.5-.8.853.853,0,0,0-.734-.35.894.894,0,0,0-.471.545.835.835,0,0,0,.471.609c-.048.061-.18.024-.278.024-1-.443-1.946-.86-2.9-1.3-.352-.069-.644-.348-.991-.419-.732-.343-1.462-.7-2.2-.99a49.966,49.966,0,0,0-6.464-2.4c-.475-.133-.925-.261-1.369-.384-.794-.223-1.592-.417-2.391-.639-2.7-.665-6.341-.737-8.7.737-.383-.128-.6.474-.8.095.668-1.753,2.619-2.338,4.363-2.4,12.784-.126,24.761-.227,37.338-.415a4.031,4.031,0,0,0,3.667-1.824,3.182,3.182,0,0,0,.228-2.942M197.076-110l-.145-7.808.121.119a25.177,25.177,0,0,1,2.909-4.981,5.434,5.434,0,0,0,1.329-3.3c-.57-.445-1.367-.22-2.07-.351-.221-.192-.889.166-.827-.384a4.631,4.631,0,0,0,2.075-1.852,1.749,1.749,0,0,1,1.745-.353,2.886,2.886,0,0,1,1.725,2.525,22.913,22.913,0,0,1-1.3,5.5,12.606,12.606,0,0,0-.87,2.144,6.321,6.321,0,0,0-.6,3.387,1.811,1.811,0,0,0,1.238,1.338c2.265-.794,4.815-1.912,7.334-1.054,2.543.841,5.1,2.021,6.719,4.124.893,1.127,1.946,1.923,2.491,3.333.19.22.316.639.511.86a2.887,2.887,0,0,0,.252.642l.383.962c-.062.926.611,2.106-.414,2.648a1.153,1.153,0,0,0-.8.161,6.4,6.4,0,0,1-1.595-.348c-1.21-.092-2.773-.414-3.539.613a1.2,1.2,0,0,1-.124.668,13.844,13.844,0,0,0-.223,1.755l-.133,1.215c-.188.9-.128,2.018-.387,2.939a.908.908,0,0,1,0,.616c.1.6-.214,1.3.14,1.755.119.45-.29.8-.354,1.215-.162.287-.228.573-.535.7a28,28,0,0,1-6-.126c0-.637.732-.512,1.112-.765,1.528-.41,3.662-.22,4.209-2.082a22.315,22.315,0,0,0,.281-4.635l-.121-.995.062-1.049-.128-.388-.278-.822a3.624,3.624,0,0,0-1.795-2.117c-.285.066-.639,0-.858.223.192.23.349.348.325.67a4.448,4.448,0,0,1-.575.869,10.357,10.357,0,0,0-.994,1.791l-.989,1.6c-.732,1.315-1.5,2.587-2.17,3.9-.216.732-.73,1.218-.887,1.98-.252.414-.634.9-.352,1.44a.766.766,0,0,1-.513.6c-2.068.1-4.24-.026-6.177-.057a.493.493,0,0,1-.257-.166c.67-.924,2.068-.67,3.059-1.082.316-.13.829.128,1.079-.227.48-.028.765-.543,1.25-.543A22.746,22.746,0,0,0,204.7-98.6l.832-1.757c.062-1.083.927-1.921.542-3.1-.356-.412-.414-1.435-1.143-1.218-1.369.734-2.648-.256-3.667-1.085-1.892-.637-3.158-2.553-4.185-4.237V-110l0,.007-.024-.05A.106.106,0,0,1,197.076-110Zm-25.5,13.743a.5.5,0,0,1-.508-.512.506.506,0,0,1,.508-.509.512.512,0,0,1,.509.509A.511.511,0,0,1,171.58-96.258Zm30.491-3.379a.559.559,0,0,1-.6-.523.558.558,0,0,1,.6-.528.567.567,0,0,1,.6.528A.568.568,0,0,1,202.071-99.638Zm-2.43,1.441a.577.577,0,0,1-.613-.528.578.578,0,0,1,.613-.528.57.57,0,0,1,.6.528A.568.568,0,0,1,199.641-98.2ZM170.763-94.88a.563.563,0,0,1-.6-.531.564.564,0,0,1,.6-.526.571.571,0,0,1,.6.526A.57.57,0,0,1,170.763-94.88Zm1.865.157a.567.567,0,0,1-.6-.526.563.563,0,0,1,.6-.519.562.562,0,0,1,.6.519A.565.565,0,0,1,172.628-94.723Zm51.984-25.106a3.749,3.749,0,0,1,.449,3.97c-.349-.038-.292-.481-.349-.737a4.7,4.7,0,0,1-.57-4.024C224.557-120.563,224.391-120.049,224.612-119.829ZM148.34-118.39a5.542,5.542,0,0,0,0,2.53c-.164.154-.128-.163-.288-.13-1.243-.893-.665-2.651-.986-3.9a.253.253,0,0,1,.321-.073A2.317,2.317,0,0,1,148.34-118.39Zm79.018.1c.193.353-.162.706-.413.86a.823.823,0,0,1-.8-.346.725.725,0,0,1,.383-.834A.835.835,0,0,1,227.358-118.293Zm-80.969,1.409a.914.914,0,0,1-.406.7c-.193,0-.478,0-.6-.161a.581.581,0,0,1-.131-.675.746.746,0,0,1,.606-.282C146.073-117.211,146.3-117.142,146.389-116.884Zm82.207.543a.674.674,0,0,1,0,.509.72.72,0,0,1-.858.294.877.877,0,0,1-.352-.552.983.983,0,0,1,.544-.571A1.009,1.009,0,0,1,228.6-116.34Zm-1.813.03c.257.13.064.452.026.644-.15.159-.375.41-.663.315-.159-.156-.347-.156-.413-.381a.714.714,0,0,1,.447-.741A.818.818,0,0,1,226.783-116.31Zm-2.327.481c0,.348.031.8-.383.862a.6.6,0,0,1-.732-.445.747.747,0,0,1,.478-.767A.856.856,0,0,1,224.457-115.829Zm-74.584.164c.093.315-.226.5-.425.668a.648.648,0,0,1-.637-.353c-.219-.227.067-.419.131-.609A.6.6,0,0,1,149.873-115.665Zm-1.918.09a.651.651,0,0,1-.347.606.56.56,0,0,1-.634-.284.545.545,0,0,1,.278-.739C147.607-116.117,147.826-115.8,147.955-115.575Zm68.794.132a6.806,6.806,0,0,1,.637,2.3c-.128.606.1,1.4-.352,1.826-.444-.163-.482-.706-.76-1-.58-1.118-.069-2.43.119-3.513C216.644-115.924,216.644-115.6,216.749-115.443Zm-70.291.377c.1.386-.2.58-.414.805a.756.756,0,0,1-.8-.447.809.809,0,0,1,.418-.772A.82.82,0,0,1,146.457-115.066Zm75.324.93a4.538,4.538,0,0,1,.15,3.07l-.183.161a12.607,12.607,0,0,1-1.3-2.589,4.262,4.262,0,0,1,.376-1.821c.233-.163.361.031.447.223A1.257,1.257,0,0,0,221.782-114.136Zm4.016-.571a.843.843,0,0,1-.478.763.576.576,0,0,1-.737-.381.7.7,0,0,1,.344-.767C225.287-115.283,225.632-114.966,225.8-114.707Zm-77.81.985a.678.678,0,0,1-.478.606c-.261.194-.442-.128-.673-.218a.79.79,0,0,1,0-.739c.1-.192.321-.192.511-.254C147.639-114.165,147.922-114.046,147.988-113.722Zm1.4-.157c.129.32-.221.474-.347.637-.383.126-.575-.163-.739-.381-.057-.32.126-.512.357-.7C149.042-114.422,149.234-114.166,149.389-113.879Zm77.3-.1c-.033.417-.675.831-.742,1.243a3.189,3.189,0,0,1-1.97,1.788,1.489,1.489,0,0,1-.734.419c-.066-.639.511-1.217.86-1.791A4.69,4.69,0,0,1,226.693-113.976Zm-79.345,1.339a11.72,11.72,0,0,0,1.312,1.509.266.266,0,0,1-.228.317c-1.554-.092-2.6-1.7-3.372-2.809.088-.355.5-.066.73-.1C146.333-113.308,146.936-113.18,147.348-112.637Zm79.784.451a4.119,4.119,0,0,1-1.968,3.451c-.359.133-.744.486-1.091.256a16.123,16.123,0,0,1,2.8-3.707Zm-6.117.93a.771.771,0,0,1-.544.924.819.819,0,0,1-.727-.5.648.648,0,0,1,.447-.706.527.527,0,0,1,.378-.095C220.765-111.581,220.855-111.42,221.015-111.256Zm-75.422.287a16.985,16.985,0,0,1,1.732,1.5c-.421.287-.939.033-1.4.033-1.093-.384-1.82-1.312-2.94-1.634.028-.353.442-.227.673-.315A5.619,5.619,0,0,1,145.593-110.969ZM182.53-119.3c.078-.012.15-.026.24-.047Zm-27.752,8.908a.7.7,0,0,1-.487.727.94.94,0,0,1-.6-.382c-.116-.346.195-.6.447-.732C154.4-110.713,154.714-110.685,154.778-110.391Zm-2.077,0a.668.668,0,0,1,.131.727c-.226.2-.568.358-.763.1-.193-.192-.38-.417-.231-.677C152.068-110.457,152.451-110.647,152.7-110.391Zm68.634.895c.124.348-.154.6-.411.737-.318-.1-.734-.166-.734-.58a.6.6,0,0,1,.482-.474A.605.605,0,0,1,221.335-109.5Zm1.69-.067c.1.156.316.419.055.578a1.33,1.33,0,0,0-.314.251.622.622,0,0,1-.765-.377c-.067-.355.228-.519.482-.68C222.7-109.852,222.86-109.689,223.025-109.563Zm-78.318.384a.637.637,0,0,1-.863.419,1.482,1.482,0,0,1-.252-.419c.036-.23.093-.45.356-.545A.77.77,0,0,1,144.706-109.179Zm10.739.543c-.036.256-.321.481-.544.6-.316.04-.539-.215-.7-.445a.633.633,0,0,1,.383-.632A.71.71,0,0,1,155.445-108.636Zm-1.873-.222a.5.5,0,0,1,.093.512c-.2.156-.483.445-.8.256-.193-.159-.411-.291-.342-.611a1.344,1.344,0,0,1,.463-.379C153.247-109.147,153.37-108.986,153.572-108.858Zm74.326.38a.833.833,0,0,1-.416.6.6.6,0,0,1-.7-.161c-.193-.054-.124-.31-.124-.476a1.077,1.077,0,0,1,.6-.412A1.165,1.165,0,0,1,227.9-108.478Zm2.037.289a.8.8,0,0,1-.6.578c-.185-.036-.544-.1-.482-.384a.575.575,0,0,1,.3-.516A.558.558,0,0,1,229.935-108.189Zm-81.6.451a.62.62,0,0,1-.385.767c-.216.128-.447-.033-.606-.166a.549.549,0,0,1-.162-.637c.064-.282.354-.22.551-.348A.789.789,0,0,1,148.34-107.738Zm1.566.289c.09.253-.2.346-.257.538a.529.529,0,0,1-.578.069c-.223-.192-.48-.476-.261-.768C149.072-108.091,149.742-107.833,149.906-107.449Zm76.112-.162c.033.32-.259.542-.444.734a.554.554,0,0,1-.644-.389.678.678,0,0,1,.359-.606A.7.7,0,0,1,226.018-107.611Zm2.609.509c-.064.291-.033.621-.354.805a.927.927,0,0,1-.763-.135.6.6,0,0,1-.124-.67.756.756,0,0,1,.765-.381C228.378-107.355,228.437-107.194,228.627-107.1Zm-81.5.673c.124.256-.154.325-.252.448a.654.654,0,0,1-.639-.061c-.223-.13-.129-.438-.1-.611C146.426-107.2,147-106.81,147.127-106.429Zm79.5.606c.128.04.066.223.036.289a2.429,2.429,0,0,1-2.588-.126,10.008,10.008,0,0,0-1.267-.7c.152-.417.727-.388,1.143-.481C224.867-106.716,225.6-105.854,226.625-105.823Zm-77.967-.282c.062.251-.128.348-.193.54-.126.2-.38.126-.546.062a.56.56,0,0,1-.216-.794A.57.57,0,0,1,148.659-106.105Zm2.8.19a.566.566,0,0,1-.321.7c-.233.13-.411-.059-.606-.095-.166-.223-.444-.474-.166-.734C150.667-106.522,151.231-106.268,151.464-105.916Zm2.8,1.152c.1.317-.152.509-.345.67-.29.128-.447-.194-.578-.353-.09-.317.131-.481.328-.642A.666.666,0,0,1,154.259-104.763Zm19.672.317a4.406,4.406,0,0,1-.387,3.586c-.031.249.059.67-.288.635-.86-1.18-.226-2.842.126-4.09C173.444-104.634,173.831-104.764,173.931-104.447Zm27.27.613a3.586,3.586,0,0,1,.06,2.973l-.254.251a7.175,7.175,0,0,1-.737-2.272,7.487,7.487,0,0,0,.385-1.694C201.1-104.674,201.068-104.092,201.2-103.834Zm-44.448.345c-.193.388-.737.483-1.089.741a3.829,3.829,0,0,1-2.833.542,3.475,3.475,0,0,1,3.629-1.506C156.527-103.582,156.686-103.648,156.753-103.489Zm-13.095,1.152c1.172.836,1.49,1.983,2.2,3.136.086.123.4.161.28.421-.252.182-.513-.2-.865-.137a3.522,3.522,0,0,1-1.939-3.29C143.333-102.337,143.528-102.337,143.659-102.337Zm56.3.995c.028.32-.038.639-.295.732a.583.583,0,0,1-.737-.382c-.088-.225.1-.35.169-.509A.566.566,0,0,1,199.961-101.342Zm29.115.444c-1.022,1.443-2.1,3.074-3.888,3.586-.126,0-.259.062-.323-.1,1.088-1.156,1.666-2.944,3.356-3.361A1.037,1.037,0,0,1,229.076-100.9Zm-86.984,1.566c-.157.13-.033.419-.316.452a.516.516,0,0,1-.668-.287.566.566,0,0,1,.416-.706C141.776-99.742,142.032-99.65,142.092-99.332Zm9.183.453c.088.284-.228.284-.385.348a3.478,3.478,0,0,1-3.667-.924c0-.135,0-.263.126-.287C148.66-99.419,150.186-99.682,151.274-98.879Zm-7.432-.421a.781.781,0,0,1,.067.481.7.7,0,0,1-.8.289.944.944,0,0,1-.411-.417.752.752,0,0,1,.542-.6A.994.994,0,0,1,143.843-99.3Zm29.857.164c.059.284-.188.478-.38.606a.633.633,0,0,1-.67-.253.472.472,0,0,1,.219-.611C173.156-99.456,173.6-99.418,173.7-99.136ZM230.288-99c.1.313-.188.474-.411.666a.7.7,0,0,1-.613-.1c-.029-.161-.214-.289-.157-.512a.7.7,0,0,1,.737-.386A4.791,4.791,0,0,1,230.288-99Zm2.106-.132c.192.284.026.519-.131.736a.448.448,0,0,1-.575.192c-.185-.192-.44-.289-.482-.576,0-.258.3-.45.482-.547C232.011-99.456,232.135-99.136,232.394-99.136Zm-91.634.925c.026.232-.166.348-.226.549-.157.052-.316.187-.506.126a.968.968,0,0,1-.485-.514.837.837,0,0,1,.573-.642A.851.851,0,0,1,140.76-98.21Zm67.094,0a.854.854,0,0,1,.036.414c-.19.261-.449.481-.77.322-.185-.187-.416-.388-.311-.675A.626.626,0,0,1,207.854-98.21Zm-61.966.483c-.059.225-.162.443-.449.476s-.38-.223-.532-.358c0-.277-.043-.571.24-.73A.584.584,0,0,1,145.888-97.727Zm-3.064.067a.65.65,0,0,1-.316.7.751.751,0,0,1-.863-.448.923.923,0,0,1,.573-.737C142.508-98.148,142.67-97.823,142.824-97.66Zm67.135-.067a.626.626,0,0,1-.349.763c-.378.128-.7-.192-.86-.445.157-.251.2-.606.568-.673A.729.729,0,0,1,209.959-97.727Zm-65.634.118c.1.234-.1.324-.162.49-.159,0-.252.192-.438.13-.135-.168-.392-.228-.423-.452-.024-.322.19-.481.423-.609A.583.583,0,0,1,144.325-97.609Zm84.2.261a.931.931,0,0,1-.53.512c-.259.064-.425-.154-.611-.258-.164-.121-.1-.407-.029-.566A.632.632,0,0,1,228.527-97.348Zm2.429.132a.826.826,0,0,1-.765.543c-.283-.128-.611-.351-.375-.737.119-.126.185-.249.375-.289A.615.615,0,0,1,230.956-97.216Zm-15.136.227c.159.412-.223.535-.478.732a1.519,1.519,0,0,1-.608-.256.747.747,0,0,1,.452-.834A.771.771,0,0,1,215.821-96.989Zm-8.761.382c.159.059.09.284.059.381-.183.133-.44.452-.73.258a.546.546,0,0,1-.319-.609A.593.593,0,0,1,207.059-96.608Zm1.78.222a.431.431,0,0,1-.247.512c-.221.225-.48-.033-.7-.095a.527.527,0,0,1-.038-.483.762.762,0,0,1,.421-.254C208.5-96.641,208.749-96.641,208.839-96.386Zm-54.062.03c.19.192-.038.417-.064.611a.626.626,0,0,1-.8.156c-.323-.123-.292-.545-.228-.8.195-.066.195-.287.447-.287A1.1,1.1,0,0,1,154.778-96.355Zm64.446.129c.074.322-.247.45-.471.514-.383.125-.573-.164-.737-.422,0-.19.2-.32.261-.474C218.72-96.8,219.01-96.482,219.224-96.226Zm-1.712,0c.124.322-.223.481-.354.64a.652.652,0,0,1-.7-.125c-.162-.095-.162-.289-.162-.483.19-.161.292-.353.516-.412A.821.821,0,0,1,217.513-96.226Zm14.366.384c.062.448-.511.227-.732.348-1.333.806-3.056.194-4.337-.282.107-.417.578-.261.834-.417,1.367-.862,2.769.192,4.142.254Zm-87.2-.384-.126.225a5.211,5.211,0,0,1-4.114.734l-.126-.192a5.779,5.779,0,0,1,4.273-.865ZM222.484-96a.726.726,0,0,1-.321.609.633.633,0,0,1-.829-.353c-.086-.256.159-.509.416-.606C221.97-96.352,222.358-96.324,222.484-96Zm-72.112.127c-.121.256-.055.514-.376.64a.688.688,0,0,1-.8-.417c-.1-.351.162-.443.316-.6C149.906-96.455,150.186-96.161,150.372-95.874Zm-2.25.162c.088.218-.107.351-.169.514a.581.581,0,0,1-.628.09c-.231-.192-.449-.414-.354-.765a1.546,1.546,0,0,1,.511-.353A.726.726,0,0,1,148.121-95.713Zm76.589.738a.672.672,0,0,1-.509.568.707.707,0,0,1-.608-.317.514.514,0,0,1,.126-.609c.071-.092.292-.092.421-.163A.7.7,0,0,1,224.711-94.974Zm-78.957-.359c.1.256-.128.358-.162.545a4.74,4.74,0,0,1-.687,1.378c-.618.734-1.476.734-2.334.959l-.133-.261a8.294,8.294,0,0,1,3.227-2.681Zm77.37.708c.055.386-.264.443-.478.609a.742.742,0,0,1-.646-.388c-.1-.353.228-.474.416-.639A.659.659,0,0,1,223.124-94.625Zm-73.7,0c-.033.064.026.123.093.154-.026.358-.283.455-.478.609a.871.871,0,0,1-.7-.32.529.529,0,0,1,.321-.734C148.942-94.948,149.323-94.917,149.422-94.625Zm79.557.955c.326-.028.38-.412.739-.476a.781.781,0,0,1,.756.348c.135.386-.162.578-.409.739-.223.161-.706-.2-.68.22a1,1,0,0,1,.456.647c-.069.121-.278.09-.387.028a4.036,4.036,0,0,1-2.293-1.983c-.121-.291-.73-.512-.378-.77A2.99,2.99,0,0,1,228.98-93.67Zm3.058-.987a.487.487,0,0,1-.026.6c-.169.325-.642.194-.922.163-.169-.163-.33-.32-.264-.578a1.058,1.058,0,0,1,.482-.41A.851.851,0,0,1,232.038-94.658Zm-11.569,1.73a4.4,4.4,0,0,1,.711,1.277c-.069.092-.233.059-.295.059-1.081-.6-2.481-1.274-2.895-2.556-.1-.13-.354-.291-.316-.507a2.925,2.925,0,0,1,2.2.9C220.091-93.444,220.343-93.285,220.469-92.928Zm-72.832-1.219c.129.284-.126.514-.292.639a.766.766,0,0,1-.732-.251c-.223-.355.2-.644.454-.77C147.326-94.561,147.483-94.3,147.637-94.146Zm76.819.738c.031.192-.231.32-.316.443-.261.038-.516.123-.73-.095-.069-.156-.23-.414-.038-.573C223.72-94.081,224.226-93.736,224.457-93.409Zm7.937.444a.759.759,0,0,1-.452.8.837.837,0,0,1-.763-.289c-.154-.192-.031-.386,0-.606a.8.8,0,0,1,.832-.227A1.958,1.958,0,0,1,232.394-92.965ZM210.34-88.554c0,.381-.7.289-.984.573a6.686,6.686,0,0,1-3.346.486v-.192A4.746,4.746,0,0,1,210.34-88.554Zm-46.481,1.376a.608.608,0,0,1-.482.543.617.617,0,0,1-.54-.317c-.133-.379.19-.542.414-.7A.738.738,0,0,1,163.858-87.177Zm45.948.349a.918.918,0,0,1-.49.739.865.865,0,0,1-.694-.225c-.159-.123-.064-.351-.1-.514A.691.691,0,0,1,209.806-86.828Zm6.327.132a5.125,5.125,0,0,1-2.728,1.123l-1.723-.04-.167-.123c1.055-1.279,2.966-1.279,4.618-1.153Zm-61.009.77a.578.578,0,0,1-.409.6.578.578,0,0,1-.67-.287.574.574,0,0,1,.247-.73C154.641-86.568,155-86.179,155.124-85.926Zm1.595.312c.09.17-.067.253-.126.424a.53.53,0,0,1-.609,0,.406.406,0,0,1-.188-.547c.088-.192.287-.161.387-.284A.891.891,0,0,1,156.718-85.614ZM144.513-82.38c-.314.379-.827-.09-1.181-.289-1.115-.637-1.079-1.883-2.2-2.615.131-.388.414.024.642-.038a4.4,4.4,0,0,0,.663.358C143.529-84.36,143.783-83.332,144.513-82.38ZM221.3-85c0,.1.193.13.121.289a6.619,6.619,0,0,1-4.266,1.341.773.773,0,0,1-.406.1c-.1-.059-.135-.156-.057-.22A4.846,4.846,0,0,1,221.3-85Zm-5.126.511c.124.45-.154.706-.511.862a.9.9,0,0,1-.706-.5c-.09-.261.131-.386.23-.547A.6.6,0,0,1,216.174-84.492Zm-60.573.067a.651.651,0,0,1-.157.675.653.653,0,0,1-.573.156c-.231-.036-.352-.287-.411-.476a.686.686,0,0,1,.411-.611C155.124-84.68,155.409-84.716,155.6-84.425Zm-5.7,2.075v.223a2.51,2.51,0,0,1-2.079-.474,4.165,4.165,0,0,0-1.687-1.594c0-.107-.2-.23,0-.3C147.737-84.491,148.692-83.207,149.906-82.35Zm76.242-2.1c-.739,1.083-1.381,2.423-2.686,2.9-.216,0-.406.32-.6.1a5.907,5.907,0,0,1,2.838-3.041A1.088,1.088,0,0,1,226.148-84.455Zm-68.7.386c.031.348-.223.414-.442.6-.257.036-.387-.161-.549-.353-.121-.315.162-.45.316-.606A.647.647,0,0,1,157.452-84.068Zm72.71.187c-.287.417-.159,1.018-.444,1.471-.642.729-1.188,1.561-2.208,1.722-.15-.317.228-.637.387-.928A4.555,4.555,0,0,1,230-84.068Zm-90.134.287a.645.645,0,0,1,0,.7.759.759,0,0,1-.734.125.589.589,0,0,1-.259-.765C139.227-83.817,139.8-83.973,140.027-83.594Zm-1.818.386c.028.161.126.284.09.443a.73.73,0,0,1-.442.386.674.674,0,0,1-.737-.417.622.622,0,0,1,.326-.67A.654.654,0,0,1,138.209-83.208Zm3.753.185c.069.256.131.711-.252.767-.442.194-.7-.125-.948-.386a.725.725,0,0,1,.373-.635A.885.885,0,0,1,141.962-83.023Zm5.227.421c-.029.223.036.543-.216.6-.162.171-.447.1-.613.074-.059-.2-.416-.362-.221-.58a1.141,1.141,0,0,1,.449-.353C146.775-82.765,147.068-82.863,147.189-82.6Zm86.028.222c-.093.223-.216.512-.471.512-.292-.04-.578-.062-.734-.348-.131-.36.157-.55.409-.644C232.746-82.861,233.155-82.731,233.217-82.38Zm-5.831.162c.043.253-.254.445-.375.538a.763.763,0,0,1-.991-.478.8.8,0,0,1,.537-.571A.831.831,0,0,1,227.385-82.218Zm3.955-.074a.66.66,0,0,1-.29.549.744.744,0,0,1-.763-.125c-.285-.258-.064-.481.126-.67C230.7-82.7,231.248-82.669,231.34-82.292Zm-92.144.551a.68.68,0,0,1-.385.8.726.726,0,0,1-.7-.452.6.6,0,0,1,.316-.668A.739.739,0,0,1,139.2-81.741Zm86.6.349a.715.715,0,0,1-.454.838c-.254.061-.416-.076-.6-.223-.133-.166-.287-.514-.033-.675A.631.631,0,0,1,225.8-81.392Zm-69.46.354c.126.348-.254.412-.354.609-.128.064-.383.1-.482-.035-.154-.2-.349-.384-.249-.67.159-.123.226-.256.416-.317C156.017-81.55,156.145-81.23,156.337-81.038Zm76.307.229c.057.225-.126.317-.155.479a.866.866,0,0,1-.737.125c-.288-.161-.288-.424-.288-.7.193-.13.223-.284.447-.348A.729.729,0,0,1,232.645-80.81Zm-1.968.093c.126.386-.228.573-.485.668-.126.028-.316-.066-.349.133a8.244,8.244,0,0,1,1.977,1.7v.256a4.334,4.334,0,0,1-3.156-1.222c-.223-.152-.608-.152-.858-.376.416-.417,1.174-.258,1.759-.294.406-.445-.487-.772.048-1.149.2-.033.323-.225.58-.164A1.159,1.159,0,0,1,230.677-80.717Zm-13.04.028c.069.161-.126.358-.152.521a.651.651,0,0,1-.7.118c-.169-.223-.418-.412-.323-.727C216.715-81.258,217.546-81.17,217.637-80.689Zm-71.248,1.126c-.088.284-.219.479-.535.509a.651.651,0,0,1-.582-.381c-.024-.223.135-.358.169-.519C145.79-80.238,146.425-80.05,146.389-79.563Zm2.59-.419c0,.45-.487.706-.642,1.146a3.244,3.244,0,0,1-2.55,2.115c-.121-.287.418-.639.547-.924a6.56,6.56,0,0,1,2.448-2.338Zm67.891.451c.038.346-.281.6-.537.734-.283.09-.513-.133-.668-.258-.254-.256-.1-.507.029-.767C216.081-80.205,216.613-79.885,216.87-79.53Zm1.98.222a.8.8,0,0,1-.57.7c-.064-.1-.228-.036-.323-.066a.693.693,0,0,1-.409-.578c.159-.156.219-.407.444-.443C218.279-79.732,218.752-79.692,218.849-79.308Zm-64.933-.03a.688.688,0,0,1-.48.666.619.619,0,0,1-.606-.381c-.062-.284.221-.476.383-.637C153.594-79.821,153.691-79.53,153.917-79.338Zm2.192.12a.751.751,0,0,1-.608.545c-.221-.061-.471-.123-.563-.381-.038-.32.216-.476.447-.637A.662.662,0,0,1,156.109-79.218ZM225.7-76.976c.161.13.452.287.383.514-.506.225-.915-.353-1.393-.452a6.488,6.488,0,0,1-1.661-2.556c.283-.291.6.066.853.163A6.13,6.13,0,0,1,225.7-76.976Zm1.181-2.242a.778.778,0,0,1-.066.706c-.185.317-.6.258-.887.19-.164-.19-.447-.441-.252-.732.088-.256.378-.32.6-.414C226.495-79.5,226.661-79.31,226.877-79.218Zm-67.831.83c.031.256.1.642-.23.8a.616.616,0,0,1-.761-.376c-.157-.386.2-.45.378-.642A.65.65,0,0,1,159.046-78.388ZM218.752-76.3a4.526,4.526,0,0,1,.825,2.269c-.093.223.166.445-.033.6h-.124c-1.428-1.019-1.745-2.463-2.293-3.9a.255.255,0,0,1-.126-.313c.319-.294.546.284.86.381ZM163.19-77.388c-.031.031,0,.059.026.059a4.27,4.27,0,0,1-4.525.578.246.246,0,0,1,.166-.289,6.49,6.49,0,0,1,2.8-.6Zm-7.267.16c-1.081.673-2.072,1.98-3.4,2.3-.257.095-.421.452-.739.253.566-1.722,2.45-2.65,4.142-2.812Zm60.946,1.434a.517.517,0,0,1-.257.68.45.45,0,0,1-.594,0,.607.607,0,0,1-.29-.637c.09-.23.321-.265.478-.358C216.485-76.05,216.715-76.05,216.87-75.795Zm-2.643.164a1.813,1.813,0,0,1-1.143.836c-1.079.377-2.072-.135-3.026-.388.029-.251.352-.156.506-.317a6.8,6.8,0,0,1,3.249-.159A.325.325,0,0,1,214.226-75.63Zm-58.3.93c-.1.126-.126.41-.38.5a.665.665,0,0,1-.644-.135c-.057-.185-.283-.346-.121-.568.064-.218.311-.284.5-.351A.692.692,0,0,1,155.923-74.7Zm1.876.282a1.13,1.13,0,0,1-.44.606.675.675,0,0,1-.642-.223.756.756,0,0,1-.1-.642c.067-.159.288-.187.444-.289A.874.874,0,0,1,157.8-74.418Zm58.473.317a.911.911,0,0,1-.223.614.545.545,0,0,1-.708.123c-.216-.031-.287-.282-.383-.445-.19-.253.128-.417.228-.64A.7.7,0,0,1,216.273-74.1Zm1.4-.065c.033.166.128.329.057.45-.183.168-.314.576-.7.417-.19.071-.285-.192-.39-.249a.618.618,0,0,1,.39-.872C217.317-74.512,217.512-74.254,217.674-74.166Zm-61.022.935a.866.866,0,0,1-.314.862c-.354.069-.794.069-.927-.351a.863.863,0,0,1,.385-.928A.759.759,0,0,1,156.652-73.232Zm1.821-.132a2.925,2.925,0,0,1-1.15,2.492c-.516.1-1.01.58-1.526.258v-.154A33.067,33.067,0,0,1,158.473-73.364Zm52.8.74c.116.192-.1.348-.2.512-.178.218-.537.13-.756.028a.484.484,0,0,1-.162-.637.663.663,0,0,1,.413-.355A.891.891,0,0,1,211.273-72.623Zm-49.617,1.471c.444.732.19,1.729.444,2.527-.535.062-.761-.547-1.11-.867-.7-.957-.608-2.238-.927-3.363a.168.168,0,0,1,.223-.061,8.482,8.482,0,0,1,1.215,1.343C161.435-71.351,161.687-71.351,161.656-71.152Zm51.2-1.214c0,.253-.288.315-.44.471a1.161,1.161,0,0,1-.609-.284c-.1-.325.162-.417.323-.576A.529.529,0,0,1,212.857-72.367Zm3.789,2.838c0,.1-.033.289-.19.23h-.121c-.927-.829-1.854-1.76-1.725-3.036l.195-.033C215.662-71.637,216.612-70.839,216.646-69.529Zm-2.384-1.018a.707.707,0,0,1-.29.6c-.347.1-.889.074-.948-.41-.04-.317.311-.483.473-.642A.651.651,0,0,1,214.262-70.546Zm-2.106.675c-.444,1.182-1.652,1.781-2.481,2.679-.164-.1-.1-.348-.064-.474a4.436,4.436,0,0,1,2.443-2.882C212.569-70.487,212.054-70.129,212.156-69.871Zm2.393.951c0,.3-.288.422-.454.576a.906.906,0,0,1-.692-.343c-.031-.322.226-.419.409-.58A.671.671,0,0,1,214.549-68.92ZM198.255-99.27a.573.573,0,0,1-.6-.531.573.573,0,0,1,.6-.526.566.566,0,0,1,.6.526A.566.566,0,0,1,198.255-99.27Zm-26.572.229a.568.568,0,0,1-.606-.523.561.561,0,0,1,.606-.521.559.559,0,0,1,.594.521A.566.566,0,0,1,171.683-99.041Zm-31.2,18.174a.579.579,0,0,1-.594-.571A.582.582,0,0,1,140.48-82a.582.582,0,0,1,.582.564A.579.579,0,0,1,140.48-80.867Zm39.244-39.569c1.041,0,1.714,1.258,2.8,1.137l-2.588.5-.257.351c-.311-.028-.54-.251-.82-.351-1.055,0-2.6-.128-3.624-.123l-.048,2.669-.373.268a.375.375,0,0,0-.162-.23,2.592,2.592,0,0,0-1.084,1.826c-.352.862,1.193,1.343,1.321,2.051a3.9,3.9,0,0,0,.592.921c.288.857.989,1.34.794,2.338,0,.831.254,2.044-.573,2.6-.221.185-.352-.142-.352-.3l-.437-2.667c-.5-1.175-1.516-1.154-2.56-1.81a4.846,4.846,0,0,0-.637,1.663c-.193.481-.345.99-.535,1.471a14.633,14.633,0,0,0-.991,2.975,5.977,5.977,0,0,1-.195,2.174,5.341,5.341,0,0,1-.188,1.471,45.653,45.653,0,0,0-1.968,6.17s-.356,1.824.121,2.4c1.046.7,2.3.474,3.536.348,2.393-.031,4.846-.637,6.88.509.1.128.383.066.444.256a1.218,1.218,0,0,1,.77.9c.086.19-.131.218-.193.317a9.883,9.883,0,0,1-2.165-.317c-4.085-.294-7.935-.128-11.8-.062-.406-.066-.946-.066-1.043-.583-.418-1.087.254-2.075.437-3.1a14.218,14.218,0,0,0,.549-4.86A2.752,2.752,0,0,0,163-97.566a6.758,6.758,0,0,1-.673,1.914c-.825,1.634-1.716,3.3-3.346,4.223a5.5,5.5,0,0,1-2.579.478H143.842c-1.654-.289-3.662.483-5.129-.478,0-.161-.157-.317-.033-.481.986-.67,2.293-.284,3.508-.509,1.055.317,2.324-.066,3.437,0a65.164,65.164,0,0,0,6.949-.509c1.248-.358,2.614-.414,3.7-1.187a1.9,1.9,0,0,1-.471-.642.768.768,0,0,1,.57-.637,3.813,3.813,0,0,1,.86.476,3.777,3.777,0,0,0,.7-2.909c-1.174,1.248-2.426,2.494-3.6,3.809a4.81,4.81,0,0,1-3.282.829c-.257-.355.314-.481.475-.7,1.05-1.054,2.876-.452,3.755-1.949.2-.253.544-.384.608-.67a1.02,1.02,0,0,1-.7-.455.411.411,0,0,1,0-.474.6.6,0,0,1,.734-.261c.321.2.347.486.447.836a7.585,7.585,0,0,0,1.495-2.082l-.067-.095c-3.37-.417-5.761,1.987-8.886,2.435a8.109,8.109,0,0,1-2.455.095c1.027-.386,2.234-.353,3.251-.7,2.263-.765,4.235-2.146,6.754-2.336a3.844,3.844,0,0,0,1.5-.227,22.5,22.5,0,0,0,.159-4.315c-1.469-.836-2.773-2.307-4.589-1.537a2.6,2.6,0,0,0-2.07,1.665c-.159,1.243.8,2.589-.231,3.676-.285-.123-.323-.512-.342-.829-.319-.673-.982-1.381-.478-2.179a4.323,4.323,0,0,1,1.785-2.141c.634-.346,1.376-.542,2-.829v-.133a12.894,12.894,0,0,0-5.221-2.174c-.421.064-.962-.126-1.276.194h-.193c-.756.417-1.5,1.345-2.6,1.154-.708.033-1.379-.161-2.082-.161-.064-.289.19-.32.383-.348,1.176-1.343,3.18-.512,4.651-1.189a8.036,8.036,0,0,1,2.139.289,5.75,5.75,0,0,0,.734.159c-.162-.573-.48-.954-.611-1.566-.57-2.075.927-3.392,1.022-5.273.088-.035.131-.192.259-.163.568,1.255.722,3.07-.354,4.1-.349.543-.832,1.27-.447,2.009.951,1.852,3.063,1.724,4.52,2.75a11.135,11.135,0,0,0,2.964,1.573c.347-.32.188-.864.292-1.314.283-2.814,2.453-4.8,4.266-6.843a23.34,23.34,0,0,0,6.914-9.695c.166-1.4,0-2.906.58-4.218l-.1-.474a4.59,4.59,0,0,1-1.561-3.143.421.421,0,0,1-.09-.478c.537-.194.979.294,1.459.353a16.646,16.646,0,0,1,1.878,1.412c.578-.8,1.029-1.471,1.626-2.307.287-.095.411.161.444.348a4.488,4.488,0,0,1-.093,2.47c.323.668.86.834,1.369,1.345v.412c.539.99,2.324,1.154,1.723,2.561-.7,1.629-4.2-.481-3.187,2.3.154.317.064.76.257,1.078.093.739.352,1.442.449,2.212.088.064.25.126.347.031.126-.161.064-.384.281-.512C176.755-119.281,177.941-121.133,179.724-120.437Zm28.39,42.116a1.837,1.837,0,0,1-1.371,1.089c.024-.772.737-1.315.475-2.174a1.918,1.918,0,0,0-2.011-.644c-.28.194-.157.519-.257.8l-.124,1.054c-.635,0-.666-.566-.86-1.021a1.864,1.864,0,0,1,.984-1.658,2.214,2.214,0,0,1,1.856.064,1.4,1.4,0,0,1,1.046.666c.48.452.354,1.251.261,1.824ZM205.531-78c.349-.348-.1-2.364.889-1.052,0,.258.036.642-.223.834-.157.128-.409.384-.665.218Zm.349.808c.033.507-.444.381-.7.573h-.763a1.753,1.753,0,0,1-.1-.9,6.042,6.042,0,0,1,1.561.327Zm.886,3.9c-.245.322-.024.831-.347,1.118,0,.578-.478.862-.889,1.09-3.793.836-7.517-.445-11.179-1.09a39.03,39.03,0,0,0-16.346-.249c-2.46.447-4.848,1.019-7.2,1.686a10.459,10.459,0,0,1-4.463-.026c-1.148-.55-.675-2.016-1.022-3.044a15.927,15.927,0,0,0-.259-2.2,2.017,2.017,0,0,1-.124-.829,12.475,12.475,0,0,1,1.459.545c2.686.5,5.074-.353,7.555-.8a55.756,55.756,0,0,1,7.36-1.118,47.357,47.357,0,0,1,8.546.287c.889.031,1.652.256,2.512.317,1.787.23,3.448.7,5.255.831a8.953,8.953,0,0,0,.96.163c2.864.452,6.084,1.251,8.82,0a22.324,22.324,0,0,1-.639,3.323Zm-16.177,2.338a2.109,2.109,0,0,1,.283,1.4c-.316.616-.955.616-1.523.734a.986.986,0,0,1-.732-.223.355.355,0,0,0-.128-.32c.1-.412-.739-.824-.159-1.182.5-.476,1.714-1.561,2.26-.412Zm.694.126c.39.092.416.514.459.832a1.714,1.714,0,0,1-1.091,1.565,1.706,1.706,0,0,1-1.248.128,2.033,2.033,0,0,0,1.918-1.085Zm.839,4.259a.119.119,0,0,0-.069.128,3.674,3.674,0,0,1-2.232-.995l-.031-.156a5.943,5.943,0,0,1,2.331,1.023Zm-1.184,2.939c-.031.1-.19.1-.252.031a17.08,17.08,0,0,1-2.011-3.837l.126-.031c.763,1.246,1.371,2.622,2.136,3.837Zm-1.59-.772-.159.071c-.162-.128-.107-.488-.069-.673.188.159.352.376.228.6Zm-.894-1.914c.033.325.347.438.162.739a.975.975,0,0,1-.162-.739Zm-.19-2.02h.062v-.095h-.062Zm-1.851,4.609c-.6.031-1.528.379-2.1-.128.029-.261-.249-.381-.214-.644.5-.19.948.417,1.424-.024a11.49,11.49,0,0,1,2.229.064c.352.095.889-.58.955.095-.249,1.059-1.523.315-2.291.637Zm-1.4-3.8.159-.263a13.66,13.66,0,0,1-1.053,2.3c-.193-.76.6-1.367.893-2.039Zm.887-.609c.418-.448.806.256.965.609.471.7,1.718,1.343,1.236,2.3-.6.54-1.568.031-2.227.45-.354-.04-.96.059-1.153-.291a18.928,18.928,0,0,1,1.179-3.07Zm-.088-1.22h-.131l.193-.192c.093.069-.04.135-.062.192Zm.72.069c.138-.192.292-.481.52-.481,0,.036.031.057.066.095a1.717,1.717,0,0,1-.587.386Zm.454.474a.237.237,0,0,1,.285,0Zm.86.995c-.026.069.038.161-.064.23l-.73-.587a.781.781,0,0,1,.794.358Zm-.1-1.855h.033v-.092h-.033Zm1.371-2.077c-.383.125-.665.578-1.05.67a1.3,1.3,0,0,1,1.05-.67Zm-1.6-.419c-.062-.287.3-.062.414-.185l1,.062c-.511-.062-1.15,1.12-1.409.123Zm-2.324.9a3.737,3.737,0,0,1,.482-1.189,1.764,1.764,0,0,1,.851.133c.071.637.87,1.5,0,2.044-.276.126-.7.419-1.012.126a.888.888,0,0,1-.321-1.113Zm-.478,1.98c-.029-.126.069-.289.1-.445.157-.161.314.123.375.215a.478.478,0,0,1-.478.23Zm-.059-1.471h.031v-.355h-.031Zm-.352-.962c-.409-.1-.637-.573-1.084-.573a2.517,2.517,0,0,1,1.214-.031c.157.225-.1.414-.131.6Zm-.354,2.589a5.461,5.461,0,0,1,.518-1.343,2.669,2.669,0,0,1-.518,1.343Zm-.694,0a7.844,7.844,0,0,1-1.538-.386c-.309-.32,0-.663,0-1.021a1.64,1.64,0,0,1,2.336-.412,3.436,3.436,0,0,1-.8,1.819Zm.283.869v.125h-.069v-.163h.135a.19.19,0,0,0-.135.038Zm-.794,1.85a23.988,23.988,0,0,1-1.562,3.008c-.066.154-.314.2-.511.223,0-.445.444-.793.634-1.18.67-.864.863-1.793,1.63-2.627.19.192-.192.32-.192.576Zm-3.028-.322c.758-.313,1.557-.983,2.417-.7a4.331,4.331,0,0,1-2.417.7Zm1.152-2.2a3.42,3.42,0,0,1,1.022-2.887,1.836,1.836,0,0,1,1.364.069c-.822.225-1.88.41-2.072,1.471.033.419-.088.642.09.992.354.606,1.16.355,1.6.829a.4.4,0,0,1-.283.379,11.876,11.876,0,0,1-1.721-.853ZM165.93-79.216c.1-.253,0-.639.345-.7.219-.066.578-.066.606.182a6.788,6.788,0,0,1-.159,1.13.743.743,0,0,1-.791-.614Zm.1,1.075c.463.35,1.138.194,1.714.289a1.145,1.145,0,0,1-.164,1.085c-.537-.126-1.236-.062-1.521-.573.059-.227-.1-.547-.028-.8Zm-1.5-.914a2.322,2.322,0,0,1,.765-1.606,2.683,2.683,0,0,1,2.514.106,1.252,1.252,0,0,1,.511.6,1.431,1.431,0,0,1-.473,1.44h-.326a3.539,3.539,0,0,1,.19-1.44c-.029-.379-.347-.414-.6-.576a1.887,1.887,0,0,0-1.44.322,1.439,1.439,0,0,0-.409,1.409c.221.355.033.831.159,1.213l-.1.128c-.383-.412-.9-.865-.794-1.6Zm29.89,13.591a13.825,13.825,0,0,0,3.4.805c-.1.431-.879.024-.789.642a7.588,7.588,0,0,1-2.861-1.343c.059-.033.124-.133.247-.1Zm-19.892.512-.444-.408c.228-.3.7-.14,1.053-.327a5.646,5.646,0,0,1,2.7-.384,7.607,7.607,0,0,1-3.31,1.118Zm34.42-14.579a3.361,3.361,0,0,0-2.179-1.987A2.788,2.788,0,0,0,204-80.81c-1.146.924-.352,2.459-.321,3.707,0,.258.033.45-.223.576-4.615-.414-8.919-1.566-13.509-2.051-1.055-.178-2.118-.137-3.116-.339l-1.281-.137a53.65,53.65,0,0,0-11.693,1.312c-.8.253-1.692.315-2.484.611-.57-.1-1.053.317-1.6.154l-1.041.246a.838.838,0,0,1-.352-.021c-.516-1.315,1.015-2.11.537-3.392a2.342,2.342,0,0,0-2.2-1.307,2.67,2.67,0,0,0-2.55,1.307c-.73,1.6.2,3.264.482,4.834-.062.514.511,1.085,0,1.5a4.371,4.371,0,0,0-3.6-.732c-.383.194-1.088-.069-1.271.379a9.084,9.084,0,0,0,4.642.578c.2-.057.325-.1.485.04.131.827-.159,1.945.352,2.676a3.277,3.277,0,0,0,2.45,1.061,37.9,37.9,0,0,0,8.221-1.634c.418-.026.742-.253,1.174-.253a23,23,0,0,1,4.53-.606,7.829,7.829,0,0,0-1.338,2.88c-.38.857.668.985.984,1.466a25.76,25.76,0,0,0-2.607,1.343c-2.041-.064-3.76.706-5.668.929-.038.417.663.294.732.708-.1.282-.39.32-.606.471-.031.194,0,.225.188.263.195-.223.613-.069.791-.287.644,0,1.188-.2,1.79-.227a5.958,5.958,0,0,0,1.628-.635c.663-.192,1.079-.649,1.749-.836.953,0,1.825-.322,2.707-.386v.192c-.73,1.187-1.5,2.4-2.26,3.524a.358.358,0,0,0,.219.509,1.633,1.633,0,0,0,1.248-.194c.673-1.151,1.269-2.243,1.818-3.416a4.571,4.571,0,0,1,1.816-2.407c.124-.064.314-.253.444-.064a15.027,15.027,0,0,0-1.53,2.241,2.674,2.674,0,0,0,.475,2.778c.385.322.96.232,1.469.258,1.245-.637,2.833.386,3.791-.831.57-.1.67.573.979.9.546.156,1.129.708,1.671.322-.036-.348-.423-.668-.611-.988-.383-.673-.86-1.217-1.212-1.831a6.684,6.684,0,0,1-.508-1.182,10.386,10.386,0,0,0,1.72.675,11.762,11.762,0,0,1,1.723.507,5.748,5.748,0,0,0,1.592,1.215c.791.386,1.692.452,2.519.772.318.031.791.282,1.008,0a1.282,1.282,0,0,0-.475-.348c-.1-.424.577-.2.8-.521a.461.461,0,0,0-.368-.239c-.449-.242-1.595-.327-1.892-.49a8.373,8.373,0,0,1-1.112-.348c-1.918,0-2.971-1.732-4.494-2.373.349-.315.887-.576,1.115-1.052a1.777,1.777,0,0,0,.093-1.7c-.278-.99-1.568-.862-2.291-1.4l.093-.107a13.8,13.8,0,0,1,3.439.455c3.059.41,5.9,1.57,9.086,1.632,1.754,0,3.947.095,4.8-1.6.166-.99.352-1.985.52-2.973.38-1.6,1.431-3.072,1.276-4.827Zm-33.271,3.209c-.335.123-.468.223-.378.566l.4,1.679a1.532,1.532,0,0,1-.114,1.111,1.984,1.984,0,0,1-1.155.68,2.369,2.369,0,0,1-1.364-.024.985.985,0,0,1-.654-.843l-.421-1.769c-.112-.445-.278-.417-.637-.365l-.033-.126,2.134-.516.038.135c-.418.111-.62.163-.509.627l.428,1.765c.074.3.249,1.035,1.155.815A1.028,1.028,0,0,0,175.418-74l-.387-1.613c-.069-.322-.2-.483-.744-.372l-.033-.135,1.4-.332Zm3.169.352a1.376,1.376,0,0,0-1.464-.708c-.323.081-.642.315-.561.659.062.282.2.381.787.481l1.02.173a1.138,1.138,0,0,1,.908.829c.1.462-.155,1.2-1.319,1.459a6.522,6.522,0,0,1-1.126.061c-.133.031-.147.13-.147.218l-.19.043-.283-1.305.173-.045a1.369,1.369,0,0,0,1.559.85c.758-.175.675-.7.663-.77-.078-.355-.406-.422-.853-.493l-.464-.078c-1.181-.2-1.288-.647-1.34-.888-.067-.324-.033-1.1,1.174-1.362a5.381,5.381,0,0,1,1.036-.04c.131-.036.15-.119.162-.23l.188-.043.257,1.151Zm4.2,2.1-2.308.215-.01-.135c.461-.076.618-.107.575-.564l-.269-2.845c-.456.064-1.117.152-1.164,1.03l-.193.016-.078-1.089,3.879-.374.124,1.094-.19.01c-.216-.85-.872-.81-1.333-.793l.273,2.852c.048.459.2.459.677.441Zm2.591-1.941c.851.014,1.191-.1,1.2-.8.009-.554-.245-.8-.775-.8-.349,0-.368.055-.4.216Zm2.816,1.94-1.333-.031-1.312-1.732h-.181l-.012,1.061c-.017.441.131.464.561.512l-.007.14-2.191-.043v-.14c.447-.033.573-.047.584-.485l.043-2.4c.014-.462-.192-.483-.556-.514v-.135l2.084.04c.463.012,1.835.078,1.82,1-.019.656-.684.817-1.036.9l1.269,1.573a.357.357,0,0,0,.266.109Zm2.452-.978-.487-1.39L189.648-75Zm1.813,1.516-2.1-.263.024-.13c.395.021.516.033.537-.144a2.773,2.773,0,0,0-.209-.753l-1.452-.187a3.262,3.262,0,0,0-.368.663c-.024.2.285.256.506.294l-.014.137-1.317-.154.021-.14c.352,0,.466-.175.715-.554l1.789-2.778.183.021,1.084,3.015c.216.614.3.812.608.843Zm3.779.767-3.693-.675.028-.135c.354.033.547.05.613-.272l.473-2.591c.06-.353-.2-.41-.475-.483l.017-.133,2.227.407-.024.137c-.447-.066-.644-.1-.73.372l-.463,2.525c-.043.258.093.322.516.4a1.6,1.6,0,0,0,1.809-.753l.19.036Zm2.448.548-2.222-.464.028-.137c.352.047.606.076.67-.251l.535-2.575c.069-.353-.228-.421-.509-.5l.017-.135,2.224.467-.024.128c-.3-.047-.606-.1-.68.256l-.535,2.57c-.081.346.178.417.525.507Zm2.681-.9-.516-1.379-.746,1.243Zm1.842,1.483-2.1-.223.019-.128c.4.012.52.021.532-.159a2.794,2.794,0,0,0-.219-.758l-1.454-.144a2.96,2.96,0,0,0-.354.668c-.024.2.29.254.506.284l-.014.137-1.312-.137.014-.133c.354-.014.461-.189.7-.566l1.74-2.814.176.014,1.153,2.991c.231.616.311.805.63.827Zm-33.422-1.219-.791-1.239-.47,1.386Zm2.12,1.04-2.1.249-.012-.144c.4-.064.511-.085.494-.263a2.841,2.841,0,0,0-.38-.682l-1.45.168a2.958,2.958,0,0,0-.2.727c.017.208.335.187.554.168l.021.135-1.312.154-.019-.13c.342-.09.411-.279.561-.7l1.093-3.133.176-.017,1.768,2.674c.359.54.482.713.791.668Zm23.261-47s.292.552.292.559a.3.3,0,0,1-.283.32.3.3,0,0,1-.29-.32A3.387,3.387,0,0,1,195.429-118.61Zm-19.245,0s.29.552.29.559a.3.3,0,0,1-.28.32.3.3,0,0,1-.288-.32A3.4,3.4,0,0,1,176.185-118.61Zm4.814,0s.29.552.29.559a.3.3,0,0,1-.29.32.3.3,0,0,1-.285-.32A3.365,3.365,0,0,1,181-118.61Zm4.813,0s.29.552.29.559a.307.307,0,0,1-.287.32.3.3,0,0,1-.283-.32A3.387,3.387,0,0,1,185.812-118.61Zm4.81,0s.288.552.288.559a.3.3,0,0,1-.288.32.3.3,0,0,1-.28-.32A3.388,3.388,0,0,1,190.622-118.61ZM176.2-112.024a3.188,3.188,0,0,1,.278.556.3.3,0,0,1-.278.315.3.3,0,0,1-.287-.315C175.908-111.477,176.2-112.024,176.2-112.024Zm0,6.4a3.337,3.337,0,0,1,.278.561.294.294,0,0,1-.278.31.3.3,0,0,1-.287-.31C175.908-105.084,176.2-105.629,176.2-105.629Zm.769,5.059a3.207,3.207,0,0,1,.288.561.3.3,0,0,1-.288.31.3.3,0,0,1-.285-.31C176.679-100.016,176.964-100.57,176.964-100.57Zm4.034,2.7a3.274,3.274,0,0,1,.285.559.294.294,0,0,1-.285.305.3.3,0,0,1-.292-.305C180.706-97.328,181-97.873,181-97.873Zm14.676-14.151s.295.547.295.556a.3.3,0,0,1-.29.315.3.3,0,0,1-.285-.315A3.179,3.179,0,0,1,195.674-112.024Zm0,6.4s.295.545.295.561a.3.3,0,0,1-.29.31.3.3,0,0,1-.285-.31A3.326,3.326,0,0,1,195.674-105.629Zm-.768,5.059s.287.554.287.561a.293.293,0,0,1-.283.31.3.3,0,0,1-.29-.31A3.217,3.217,0,0,1,194.906-100.57Zm-4.034,2.7s.28.545.28.559a.289.289,0,0,1-.28.305.293.293,0,0,1-.283-.305A3.283,3.283,0,0,1,190.872-97.873Zm-4.912,2.848s.287.552.287.559a.3.3,0,0,1-.287.313.291.291,0,0,1-.281-.313A3.486,3.486,0,0,1,185.96-95.025ZM189-107.353h5.554v-9.754H189Zm5.554,4.638a3.117,3.117,0,0,1-1.174,2.425l-4.38,2.6v-9.166h5.554Zm-11.194-4.638h5.148v-9.754h-5.148Zm5.148,9.967-2.018,1.2h-.043a.817.817,0,0,1-.525.187.824.824,0,0,1-.546-.194l-2.013-1.189v-9.467h5.145Zm-7.218-9.962h1.583v-3.574h-1.583Zm1.583,9.661-4.373-2.6a3.123,3.123,0,0,1-1.184-2.425v-4.138h5.557Zm-5.557-15.666h1.925V-117.1h-1.925Zm2.405-2.342.219-.237-.14-.251.295.028.178-.31.171.31.3-.028-.135.251.223.237-.292.054v.315l-.266-.2-.271.2v-.315Zm1.352,3.934c-.009-.107-.142-.13-.188-.13-.176,0-.247.287-.395.3-.1,0-.173.007-.173-.116,0-.095.221-.178.3-.253-1.186,0-1.2.542-1.393.542-.307,0,.266-.576.425-.741-.235-.033-.383-.324-.642-.481.124-.168.2-.1.352.026,0-.123.093-.27.368-.27.535,0,.376.507.459.507s0-.507.354-.507c.528,0,1.186,1.343.589,1.343-.252,0-.05-.185-.055-.22ZM179.8-108.89l.295.033.178-.305.171.305.3-.033-.135.258.223.237-.292.05v.315l-.266-.2-.271.2v-.315l-.281-.05.219-.237Zm-2.17-3.636.3.028.181-.3.169.3.3-.028-.133.256.216.237-.28.054v.32l-.271-.208-.278.208v-.32l-.285-.054.228-.237Zm-.314,5.178h1.925v-3.574h-1.925Zm4.409-4.685.223-.237-.135-.256.29.028.178-.3.173.3.3-.028-.138.256.228.237-.295.054v.32l-.273-.208-.266.208v-.32Zm-.435-1.319h1.583V-117.1h-1.583Zm13.779-4.249v-.012H176.806v.012h0l.014,14.707a3.324,3.324,0,0,0,1.431,3.039l7.035,4.183a.829.829,0,0,0,.639.287.847.847,0,0,0,.568-.223l7.135-4.247a3.339,3.339,0,0,0,1.431-3.039l.022-14.707ZM196.4-102.24a3.805,3.805,0,0,1-1.436,2.954l-8.368,5.3h-.047a1.077,1.077,0,0,1-.651.225,1.076,1.076,0,0,1-.656-.23l-8.351-5.3a3.841,3.841,0,0,1-1.445-2.954v-16.533H196.4Zm.627-17.129v-.01H174.821v.01l.014,16.909c0,1.729.734,3.233,1.744,3.7l8.549,5.407a1.029,1.029,0,0,0,.77.348,1.031,1.031,0,0,0,.7-.277l8.66-5.478c1.022-.464,1.752-1.968,1.752-3.7l.021-16.909Zm-6.121,6.989c0,.417.558.137.977.137s.967.279.967-.137c0-.587-.556-.381-.967-.381s-.977-.206-.977.381Zm1.773.98c.4,0,.435-.554.435-1.035,0-1.09-.865,0-1.312-1.03-.316.869-1.215.066-1.215,1,0,.637,0,1.063.642,1.063Zm-2.667-4.775,1.8.694,1.775-.694-.7,2.65,1.407-.294-.475,1.608.475,1.537-1.243-.334.54,2.852-1.775-.685-1.8.685.737-2.852-1.443.4.378-1.606-.378-1.54,1.381.225Zm-4.224,3.9v-.336l-.3-.055.235-.246-.155-.275.314.04.19-.334.181.327.311-.033-.138.275.228.246-.3.055v.336l-.285-.211Zm-1.4,1.795v-.329l-.307-.064.233-.242-.145-.27.3.028.195-.322.178.32.311-.026-.142.27.242.242-.311.064v.329l-.278-.208Zm2.374-.222v-.334l-.309-.064.238-.244-.145-.27.316.033.185-.327.185.322.307-.028-.145.27.235.244-.3.064v.334l-.285-.213Zm.274,1.342v-.192l-.171-.031.136-.14-.081-.152.171.016.107-.182.1.182.193-.016-.093.152.133.14-.173.031v.192l-.159-.121Zm-2.2,1.536v-.578l-.52-.095.406-.424-.249-.462.525.052.314-.552.323.547.54-.047-.249.462.4.424-.516.095v.578l-.5-.358Zm.882-7.21c-.387,0-.9.256-.9-.194,0-.637.437-.493.817-.493s.972-.144.972.493c0,.45-.513.194-.894.194m1.136-.256a.855.855,0,0,1-.287.673v.412a.176.176,0,0,1-.178.185H185a.185.185,0,0,1-.176-.185v-.388c-.19-.116-.292-.336-.292-.732,0-1.007.891-.22,1.188-1.156C186.117-115.377,186.856-116.606,186.856-115.294Zm1.446,10.732c-.062.637-1.122-.092-.977.756a4.963,4.963,0,0,0,.644,1.8c.3.431.142,1.1.121,1.611a2.83,2.83,0,0,1-1.219,1.028c-.9-.085-2.237.459-2.664-.663a4.637,4.637,0,0,1-.52-1.521c.1-.054.226-.054.319-.152,0-.211-.252-.336-.216-.54,1.029-.192-.428-1.1.456-1.16.723.76,1.9.514,2.541,1.333a2.526,2.526,0,0,0,.452.393c-.119-.758-.482-1.514-.6-2.335a1.066,1.066,0,0,1,.359-1.066C187.539-105.507,187.993-104.9,188.3-104.562Zm5.49,0a.642.642,0,0,0-.639,0c.145.448.722.448.9.938.033.488-.447.67-.447,1.123.573.457-.368.7-.152,1.222-.185.36-.544.268-.818.324-.428-.3.247-.388.171-.694-.449.182-.654.789-1.179,1.123-.171.028-.508.126-.632-.09,0-.09-.029-.178.033-.244a1.177,1.177,0,0,0,.815-.91.628.628,0,0,0-.7-.336,2.426,2.426,0,0,0-.568.791c.055.666-.7.725-1.093.945l-.154-.128a.507.507,0,0,1,.18-.483c.637-.3.637-1.063.91-1.611a5.3,5.3,0,0,0-1.143-1.111,2.079,2.079,0,0,1-.121-.55.854.854,0,0,1,.124-.5,1.321,1.321,0,0,1,.264-.09c.33.059.307.488.307.725.086.154.3.462.513.372-.04-.123-.04-.244-.124-.332l.3-.194c-.031-.116-.093-.147-.216-.116a.873.873,0,0,1-.238-.455,1.169,1.169,0,0,1,1.091-.545c.278,0,.725-.336.875.09.1.088-.059.185-.088.275.392.424.152.945.028,1.4.276.452.915-.028,1.274.339a.214.214,0,0,0,.211-.277c-.119-.09-.147-.272-.33-.213a1,1,0,0,1-.485-.786c.3-.488.844-.547,1.359-.675a.409.409,0,0,1,.347.213l-.181.512C194-104.439,193.84-104.475,193.792-104.562Zm-11.215,1.078c.043.09-.038,1.727-.791,1.234-.725-.476-.114.436-.138.393.076.253.157.161.247.31.126.171-.635.107-.635.45,0,.376.233.135.233.685,0,.2-.639-.2-.566-.22-.133.038-.169.471-.347.483-.271.012-.266-.422-.414-.476.045.066-.568.412-.568.265a6.427,6.427,0,0,0,.057-.753c0-.46-.582-.033-.582-.445,0-.313.376-.147.376-.517,0-.339-.188-.045-.207-.244-.048.128.014.4-.368.4-.535,0-1.267-.542-1.267-1.71,0-.341.045-.464.1-.514-.114-.066-.19-.159-.162-.23s.176-.1.33-.057c-.055-.213-.268-.173-.268-.388,0-.249.39.059.39-.166s-.345-.284-.345-.54.328.163.556.163c0-.523-.537-.623-.537-1.033.39,0,1.352.824,1.352,1.409,0,.36.01.3.01.554,0,.237.292.751.532.751s.109-.407.109-.552-.216-.516-.361-.516c.162-.275.7-.258.927-.258.713,0,.513,1.386.779,1.094a2.524,2.524,0,0,0,.361-1.308c0-.616.459-.519.972-1.184.086.147-.041.649-.568,1.078.673-.313.92-.329,0,.668.573-.1,1.236-.715.2.775.316-.163.613-.384.642-.147a2,2,0,0,0-.556.753C181.881-103.257,182.549-103.541,182.577-103.484Zm8.3-23.233h-.347c-.929,0-.14,1.113.361,1.113.608,0,.654-1.113-.014-1.113Zm-2.854,1.113c.929,0,.055-1.113-.437-1.113h-.917c-.934,0-.059,1.113.44,1.113Zm-3.867,0c.924,0,.05-1.113-.447-1.113h-.92c-.92,0-.05,1.113.437,1.113Zm6.683-1.371a.786.786,0,0,1,.782.8.787.787,0,0,1-.782.786h-9.454a.79.79,0,0,1-.789-.786.789.789,0,0,1,.789-.8ZM185.96-138l1.122,2.755,2.835-.836-1.433,2.594,2.415,1.712-2.918.488.171,2.968-2.191-1.992-2.205,1.992.183-2.968-2.928-.488,2.424-1.712-1.44-2.594,2.845.836Z" transform="translate(-134.245 138)" fill="#fff" clip-rule="evenodd"/>
    </clipPath>
  </defs>
  <g id="Group_2834" data-name="Group 2834" transform="translate(0 82.436)" clip-path="url(#clip-path)">
    <g id="Group_2833" data-name="Group 2833" transform="translate(0 -82.437)" clip-path="url(#clip-path-2)">
      <path id="Path_3056" data-name="Path 3056" d="M107-105.032H328.712v36.365H107Z" transform="translate(-117.856 176.612)" fill="#fff"/>
    </g>
  </g>
  <g id="Group_2836" data-name="Group 2836" transform="translate(48.296)" clip-path="url(#clip-path-3)">
    <g id="Group_2835" data-name="Group 2835" transform="translate(-48.297 0)" clip-path="url(#clip-path-2)">
      <path id="Path_3059" data-name="Path 3059" d="M129.245-143h125.12v97.376H129.245Z" transform="translate(-91.803 132.144)" fill="#fff"/>
    </g>
  </g>
</svg>
