<svg xmlns="http://www.w3.org/2000/svg" viewBox="0 0 100 125" x="0px" y="0px"><path d="M15.64,62.72l8.9-6.26A10.25,10.25,0,0,1,32,55.88l28.86,8.75a2.31,2.31,0,0,1-.82,4.52L41.88,68a1.77,1.77,0,0,0-.23,3.54l18.19,1.15h.37a5.85,5.85,0,0,0,1.7-11.45L33.05,52.49a13.85,13.85,0,0,0-10.21.85l-.23.14-8.73,6.15-8,1.92A1.77,1.77,0,1,0,6.67,65L15,63A1.75,1.75,0,0,0,15.64,62.72Z"/><path d="M96.83,61.7a6.77,6.77,0,0,0-8.25-3.38L70.2,64.65a1.76,1.76,0,0,0-1.1,2.25A1.78,1.78,0,0,0,71.35,68l18.39-6.33a3.21,3.21,0,0,1,2.57,5.85L58.86,85.59a7.64,7.64,0,0,1-6.42.39C22.17,74.12,21.24,74.14,20.67,74.13a1.88,1.88,0,0,0-.7.16L11.71,78a1.77,1.77,0,1,0,1.45,3.23l7.71-3.45c2.09.64,10.92,3.93,30.28,11.51a11.09,11.09,0,0,0,9.39-.57L94,70.64A6.74,6.74,0,0,0,96.83,61.7Z"/><path d="M37.13,48.57a1.76,1.76,0,0,0,1.45-2A22.33,22.33,0,0,1,38.29,43,21.33,21.33,0,0,1,81,43a21.11,21.11,0,0,1-4.17,12.67,1.78,1.78,0,0,0,1.42,2.83,1.75,1.75,0,0,0,1.42-.72A24.62,24.62,0,0,0,84.49,43a24.87,24.87,0,1,0-49.4,4.15A1.77,1.77,0,0,0,37.13,48.57Z"/><path d="M59.67,54.22a1.63,1.63,0,0,0,1.64-1.64V51.06a6.83,6.83,0,0,0,3.12-1.63,4.55,4.55,0,0,0,1.51-3.36c0-4.09-2.78-5.32-5.77-6s-2.92-1.84-3-2.4a2.25,2.25,0,0,1,.65-1.43,1.57,1.57,0,0,1,1.32-.43C62,36,62.28,37.54,62.38,38a1.64,1.64,0,1,0,3.22-.59,5.73,5.73,0,0,0-4.29-4.57v-1.8a1.64,1.64,0,0,0-3.28,0V32.6a4.7,4.7,0,0,0-2.45,1.26,5.49,5.49,0,0,0-1.64,4c.11,1.9,1.15,4.37,5.46,5.4,3.25.78,3.25,1.64,3.25,2.84a1.29,1.29,0,0,1-.48,1,3.47,3.47,0,0,1-2.15.89c-.78,0-3.33-.38-3.33-3a1.64,1.64,0,0,0-3.28,0,5.94,5.94,0,0,0,4.62,6v1.68A1.63,1.63,0,0,0,59.67,54.22Z"/></svg>